# WaveFront *.obj file (generated by CINEMA 4D)

mtllib ./미로와_방이_있고_바닥이_없는_맵.mtl

v -1 1 -2
v 1 1 -1
v -1 1 -1
v 1 1 -2
v -1 1 -4
v 1 1 -4
v -1 1 -6
v 1 1 -6
v -16 1 -4
v -16 1 -6
v -23 1 8
v -25 1 4
v -23 1 4
v -25 1 8
v -23 1 11
v -25 1 11
v -26 1 11
v -26 1 8
v -28 1 11
v -28 1 8
v -28 1 6
v -26 1 6
v -30 1 8
v -30 1 6
v -28 1 9
v -30 1 9
v -18 1 -4
v -18 1 -6
v -16 1 -1
v -18 1 -1
v -10 1 20
v -12 1 19
v -10 1 19
v -12 1 20
v -10 1 22
v -12 1 22
v -13 1 22
v -13 1 20
v -12 1 23
v -13 1 23
v -11 1 22
v -11 1 23
v -12 1 24
v -13 1 24
v -14 1 24
v -14 1 23
v -14 1 21
v -13 1 21
v -13 1 26
v -14 1 26
v -15 1 26
v -15 1 24
v -15 1 22
v -14 1 22
v -16 3 -4
v -18 3 -1
v -16 3 -1
v -18 3 -4
v -16 3 -6
v -18 3 -6
v -1 3 -4
v -1 3 -6
v 1 3 -4
v 1 3 -6
v -1 3 -1
v 1 3 -1
v -12 3 20
v -10 3 19
v -12 3 19
v -10 3 20
v -12 3 22
v -10 3 22
v -13 3 20
v -13 3 22
v -13 3 23
v -12 3 23
v -11 3 23
v -11 3 22
v -13 3 24
v -12 3 24
v -14 3 23
v -14 3 24
v -14 3 22
v -13 3 21
v -14 3 21
v -14 3 26
v -13 3 26
v -15 3 24
v -15 3 26
v -15 3 22
v -5 3 1
v -6 3 3
v -6 3 1
v -5 3 3
v -5 3 -1
v -6 3 -1
v 1 3 9
v 2 3 6
v 2 3 9
v 1 3 6
v -15 3 10
v -16 3 9
v -15 3 9
v -16 3 10
v -18 3 9
v -18 3 10
v -19 3 9
v -19 3 10
v -20 2.75 9
v -19 2.75 2
v -19 2.75 9
v -20 2.75 2
v -15 1.75 13
v -17 1.75 14
v -17 1.75 13
v -15 1.75 14
v 4 3 -1
v 4 1 3
v 4 1 -1
v 4 3 3
v 2 1 -1
v 2 3 -1
v -25 1 -1
v -25 3 -1
v -25 3 4
v -22 1 12
v -22 3 4
v -22 1 4
v -22 3 12
v -19 1 12
v -19 3 12
v -19 1 13
v -19 3 13
v -15 1 12.00000095367432
v -15 3 14
v -15 1 14
v -15 3.00000023841858 12.00000095367432
v -3 1 12
v -7 3 12
v -7 1 12
v -3 3 12
v -3 1 21
v -3 3 21
v -4 1 21
v -4 3 21
v -4 1 27
v -4 3 27
v -5 1 27
v -5 3 27
v -5 1 26
v -5 3 26
v -11 1 26
v -11 3 26
v -11 1 31
v -11 3 31
v -12 1 31
v -12 3 31
v -12 1 35
v -12 3 35
v -11 1 35
v -11 3 35
v -11 1 37
v -11 3 37
v -9 1 35
v -9 3 37
v -9 1 37
v -9 3 35
v -8 1 35
v -8 3 35
v -8 1 31
v -8 3 31
v -9 1 31
v -9 3 31
v -9 1 29
v -9 3 29
v -2 1 29
v -2 3 29
v -2 1 25
v -2 3 25
v -1 1 25
v -1 3 25
v -1 1 23
v -1 3 23
v 0 1 23
v 0 3 23
v 0 1 19
v 0 3 19
v -1 1 19
v -1 3 19
v -1 1 12
v -1 3 12
v 11 1 12
v 11 3 12
v 11 1 11
v 11 3 11
v 13 1 11
v 13 3 11
v 1 1 10
v 7 3 10
v 7 1 10
v 1 3 10
v 4 1 5
v 1 3 5
v 1 1 5
v 4 3 5
v -7 3 10
v -9 1 10
v -9 3 10
v -7 1 10
v -9 1 12
v -9 3 12
v -1 3 10
v -1 1 10
v -1 3 5
v -1 1 5
v -5 3 5
v -5 1 5
v -5 1 3
v -6 1 3
v -6 3 6
v -6 1 6
v -10 3 6
v -10 1 6
v -10 3 5
v -10 1 5
v -12 3 5
v -12 1 5
v -12 1 10
v -12 3 10
v -14 3 3
v -14 1 5
v -14 3 5
v -14 1 3
v -12 3 3
v -12 1 3
v -12 3 2
v -12 1 2
v -9 3 2
v -9 1 2
v -9 3 3
v -9 1 3
v -8 3 3
v -8 1 3
v -8 3 1
v -8 1 1
v -23 3 2
v -23 1 1
v -23 3 1
v -23 1 2
v -20 3 2
v -20 1 2
v -14 1 10
v -14 3 10
v -6 1 1
v -6 1 -1
v -5 1 -1
v -5 1 1
v 2 1 9
v 1 1 9
v 1 1 6
v 2 1 6
v -18 1 1
v -18 3 1
v -16 3 1
v -16 1 1
v -16 1 9
v -15 1 9
v -15 1 10
v -16 1 10
v -18 1 9
v -18 1 10
v -19 1 9
v -19 1 10
v -19 1 2
v -20 1 9
v -15 1 2
v -15 3 2
v -16 1 2
v -16 3 2
v -18 1 2
v -18 3 2
v -20 3 10
v -20 1 10
v -20 3 9
v -17 1 13
v -17 3 13
v -17 1 14
v -17 3 14
v -15 1 13
v -19 3 2
v -23 3 4
v -23 3 8
v -23 3 11
v -28 3 11
v -28 3 9
v -30 3 9
v -30 3 6
v -26 3 6
v -26 3 8
v -25 3 8
v -7 7 12
v -3 7 12
v -3 3 10
v -3 7 10
v -7 7 10
v -1 7 12
v -1 7 10
v -9 7 12
v -9 7 10
v -12 3 12
v -12 7 12
v -12 7 10
v -15 7 10
v -19 7 10
v -19 7 12
v -15 7 12
v -14 7 10
v -14 3 12
v -14 7 12
v -20 7 10
v -20 3 12
v -20 7 12
v -22 3 10
v -22 7 10
v -22 7 12
v 1 3 12
v 7 3 12
v 1 7 12
v 7 7 12
v 7 7 10
v 1 7 10
v 11 7 12
v 11 3 10
v 11 7 10
v -9 1 17
v -9 3 17
v -15 1 17
v -15 3 17
v -15 1 16
v -15 3 16
v -10 1 16
v -10 3 16
v -10 1 13
v -10 3 13
v -13 1 13
v -13 3 13
v -13 1 14
v -13 3 14
v -17 1 19
v -17 3 19
v -7 1 19
v -7 3 19
v 13 1 5
v 13 3 5
v 12 1 5
v 12 3 5
v 12 1 3
v 12 3 3
v 11 1 3
v 11 3 3
v 11 1 0
v 11 3 0
v 7 1 6
v 7 3 0
v 7 1 0
v 7 3 6
v 7 1 9
v 7 3 9
v -1 7 5
v -5 7 3
v -5 7 5
v -1 7 3
v -1 7 -1
v -5 7 -1
v 1 7 3
v 1 7 -1
v 1 7 5
v 4 7 3
v 4 7 -1
v 4 7 5
v -8 3 -1
v -8 3 6
v -9 3 6
v -10 3 3
v -10 3 2
v -3 3 19
v 11 3 9
v 13 3 10
v 13 3 9
v 13 3 6
v 11 3 6
v 6 3 6
v 6 3 9
v 11 3 5
v 7 3 5
v 7 3 3
v -19 3 14
v -20 3 4
v -22 3 2
v -25 3 2
v -25 3 1
v -23 3 -1
v -7 3 17
v -9 3 19
v -10 3 17
v -12 3 17
v -15 3 19
v -17 3 17
v -17 3 16
v -10 3 14
v -1 3 21
v 0 3 21
v -3 3 23
v -4 3 23
v -3 3 25
v -4 3 25
v -3 3 27
v -2 3 27
v -3 3 29
v -5 3 29
v -9 3 27
v -9 3 26
v -11 3 27
v -5 2.75 -1
v -6 2.75 -1
v -6 2.75 3
v -5 2.75 3
v -15 2.75 10
v -15 2.75 9
v -19 2.75 10
v -25 3 11
v -26 3 11
v -28 3 8
v -28 3 6
v -30 3 8
# 435 vertices

vn 0 1 0
vn 0 0 0
vn 0 -1 0
vn -1 0 0
vn 0 0 1
vn 1 0 0
vn 0 0 -1
vn -0.00000015894571 0 -1
vn -0.00000015894572 0 -1
vn 0.00000023841858 0 -1
vn 0.00000011920929 -0.0000001192093 -1
vn 0 -0.00000023841861 -1
vn -0.00000095367443 -0.00000023841861 -1
vn -0.00000047683722 -0.0000001192093 -1
vn 0.00000002980232 -1 -0.00000005960467
vn 0.00000005960464 -1 0
vn 0 -1 -0.00000011920935
# 17 normals

vt 2 4 0
vt 0 5 0
vt 2 5 0
vt 0 1 0
vt 0 4 0
vt 2 2 0
vt 0 2 0
vt 2 0 0
vt 0 0 0
vt 17 2 0
vt 17 0 0
vt 0 7 0
vt 2 7 0
vt 3 7 0
vt 3 4 0
vt 5 7 0
vt 5 4 0
vt 5 2 0
vt 3 2 0
vt 7 4 0
vt 7 2 0
vt 5 5 0
vt 7 5 0
vt 19 2 0
vt 19 0 0
vt 17 5 0
vt 19 5 0
vt 5 1 0
vt 3 0 0
vt 5 0 0
vt 3 1 0
vt 5 3 0
vt 3 3 0
vt 2 3 0
vt 2 1 0
vt 4 3 0
vt 4 4 0
vt 3 5 0
vt 1 5 0
vt 1 4 0
vt 1 2 0
vt 1 7 0
vt 0 3 0
vt 1 3 0
vt 1 0 0
vt 1 1 0
vt 4 0 0
vt 4 2 0
vt 7 0 0
vt 8 2 0
vt 8 0 0
vt 0.00000095367432 0.00000011920929 0
vt 2 0.00000011920929 0
vt 0.00000095367432 2 0
vt 9 2 0
vt 9 0 0
vt 6 2 0
vt 6 0 0
vt 12 2 0
vt 12 0 0
vt 15 2 0
vt 15 0 0
vt 0 0.00000011920929 0
vt 6 0.00000011920929 0
vt 7 1.75 0
vt 0 1.75 0
vt 1 0.75 0
vt 0 0.75 0
vt 2 0.75 0
vt 0 0.25 0
vt 7 0.25 0
vt -1 0 0
vt -1 2 0
vt 0.00000095367432 0.00000023841858 0
vt 0.00000095367432 4 0
vt 1 0.00000023841858 0
vt 6 4 0
vt 4 1 0
vt 4 0.00000095367432 0
vt 0 6 0
vt 2 6 0
vt 2 0.00000095367432 0
vt 1 0.25 0
# 83 texture coordinates

o MAP
usemtl texture_antarctic_floor_secret_1a
f 3/3/1 2/2/1 1/1/1
f 2/2/1 4/5/1 1/1/1
f 1/1/1 4/5/1 5/6/1
f 4/5/1 6/7/1 5/6/1
f 5/6/1 6/7/1 7/8/1
f 6/7/1 8/9/1 7/8/1
f 5/6/1 7/8/1 9/10/1
f 7/8/1 10/11/1 9/10/1
f 13/9/1 12/8/1 11/5/1
f 12/8/1 14/1/1 11/5/1
f 11/5/1 14/1/1 15/12/1
f 14/1/1 16/13/1 15/12/1
f 16/13/1 14/1/1 17/14/1
f 14/1/1 18/15/1 17/14/1
f 17/14/1 18/15/1 19/16/1
f 18/15/1 20/17/1 19/16/1
f 20/17/1 18/15/1 21/18/1
f 18/15/1 22/19/1 21/18/1
f 20/17/1 21/18/1 23/20/1
f 21/18/1 24/21/1 23/20/1
f 20/17/1 23/20/1 25/22/1
f 23/20/1 26/23/1 25/22/1
f 9/10/1 10/11/1 27/24/1
f 10/11/1 28/25/1 27/24/1
f 9/10/1 27/24/1 29/26/1
f 27/24/1 30/27/1 29/26/1
f 33/30/1 32/29/1 31/28/1
f 32/29/1 34/31/1 31/28/1
f 31/28/1 34/31/1 35/32/1
f 34/31/1 36/33/1 35/32/1
f 36/33/1 34/31/1 37/34/1
f 34/31/1 38/35/1 37/34/1
f 36/33/1 37/34/1 39/15/1
f 37/34/1 40/1/1 39/15/1
f 36/33/1 39/15/1 41/36/1
f 39/15/1 42/37/1 41/36/1
f 39/15/1 40/1/1 43/38/1
f 40/1/1 44/3/1 43/38/1
f 44/3/1 40/1/1 45/39/1
f 40/1/1 46/40/1 45/39/1
f 46/40/1 40/1/1 47/41/1
f 40/1/1 48/6/1 47/41/1
f 44/3/1 45/39/1 49/13/1
f 45/39/1 50/42/1 49/13/1
f 50/42/1 45/39/1 51/12/1
f 45/39/1 52/2/1 51/12/1
f 52/2/1 45/39/1 53/43/1
f 45/39/1 54/44/1 53/43/1
f 57/26/3 56/27/3 55/10/3
f 56/27/3 58/24/3 55/10/3
f 55/10/3 58/24/3 59/11/3
f 58/24/3 60/25/3 59/11/3
f 55/10/3 59/11/3 61/6/3
f 59/11/3 62/8/3 61/6/3
f 61/6/3 62/8/3 63/7/3
f 62/8/3 64/9/3 63/7/3
f 61/6/3 63/7/3 65/3/3
f 63/7/3 66/2/3 65/3/3
f 69/29/3 68/30/3 67/31/3
f 68/30/3 70/28/3 67/31/3
f 67/31/3 70/28/3 71/33/3
f 70/28/3 72/32/3 71/33/3
f 67/31/3 71/33/3 73/35/3
f 71/33/3 74/34/3 73/35/3
f 74/34/3 71/33/3 75/1/3
f 71/33/3 76/15/3 75/1/3
f 76/15/3 71/33/3 77/37/3
f 71/33/3 78/36/3 77/37/3
f 75/1/3 76/15/3 79/3/3
f 76/15/3 80/38/3 79/3/3
f 75/1/3 79/3/3 81/40/3
f 79/3/3 82/39/3 81/40/3
f 74/34/3 75/1/3 83/44/3
f 75/1/3 81/40/3 83/44/3
f 74/34/3 83/44/3 84/6/3
f 83/44/3 85/41/3 84/6/3
f 82/39/3 79/3/3 86/42/3
f 79/3/3 87/13/3 86/42/3
f 82/39/3 86/42/3 88/2/3
f 86/42/3 89/12/3 88/2/3
f 82/39/3 88/2/3 83/44/3
f 88/2/3 90/43/3 83/44/3

usemtl texture_antarctic_wall_2
f 93/45/1 92/41/1 91/9/1
f 92/41/1 94/7/1 91/9/1
f 96/45/1 93/41/1 95/9/1
f 93/41/1 91/7/1 95/9/1
f 99/43/1 98/9/1 97/44/1
f 98/9/1 100/45/1 97/44/1
f 103/9/1 102/45/1 101/4/1
f 102/45/1 104/46/1 101/4/1
f 102/9/1 105/8/1 104/4/1
f 105/8/1 106/35/1 104/4/1
f 105/9/1 107/45/1 106/4/1
f 107/45/1 108/46/1 106/4/1
f 111/12/1 110/9/1 109/42/1
f 110/9/1 112/45/1 109/42/1
f 115/8/1 114/35/1 113/9/1
f 114/35/1 116/4/1 113/9/1

usemtl texture_antarctic_wall_1
f 119/9/4 118/47/4 117/7/4
f 118/47/4 120/48/4 117/7/4
f 119/8/5 117/6/5 121/9/5
f 117/6/5 122/7/5 121/9/5
f 121/45/5 122/41/5 2/9/5
f 122/41/5 66/7/5 2/9/5
f 30/49/5 56/21/5 123/9/5
f 56/21/5 124/7/5 123/9/5
f 123/30/6 124/18/6 12/9/6
f 124/18/6 125/7/6 12/9/6
f 128/51/6 127/50/6 126/9/6
f 127/50/6 129/7/6 126/9/6
f 126/29/7 129/19/7 130/9/7
f 129/19/7 131/7/7 130/9/7
f 130/45/6 131/41/6 132/9/6
f 131/41/6 133/7/6 132/9/6
f 136/53/4 135/6/4 134/52/4
f 135/6/4 137/54/4 134/52/4
f 140/47/7 139/48/7 138/9/7
f 139/48/7 141/7/7 138/9/7
f 138/56/6 141/55/6 142/9/6
f 141/55/6 143/7/6 142/9/6
f 142/45/5 143/41/5 144/9/5
f 143/41/5 145/7/5 144/9/5
f 144/58/6 145/57/6 146/9/6
f 145/57/6 147/7/6 146/9/6
f 146/45/5 147/41/5 148/9/5
f 147/41/5 149/7/5 148/9/5
f 148/45/4 149/41/4 150/9/4
f 149/41/4 151/7/4 150/9/4
f 150/58/5 151/57/5 152/9/5
f 151/57/5 153/7/5 152/9/5
f 152/30/6 153/18/6 154/9/6
f 153/18/6 155/7/6 154/9/6
f 154/45/5 155/41/5 156/9/5
f 155/41/5 157/7/5 156/9/5
f 156/47/6 157/48/6 158/9/6
f 157/48/6 159/7/6 158/9/6
f 158/45/7 159/41/7 160/9/7
f 159/41/7 161/7/7 160/9/7
f 160/8/6 161/6/6 162/9/6
f 161/6/6 163/7/6 162/9/6
f 166/8/4 165/6/4 164/9/4
f 165/6/4 167/7/4 164/9/4
f 164/45/7 167/41/7 168/9/7
f 167/41/7 169/7/7 168/9/7
f 168/47/4 169/48/4 170/9/4
f 169/48/4 171/7/4 170/9/4
f 170/45/5 171/41/5 172/9/5
f 171/41/5 173/7/5 172/9/5
f 172/8/4 173/6/4 174/9/4
f 173/6/4 175/7/4 174/9/4
f 174/49/7 175/21/7 176/9/7
f 175/21/7 177/7/7 176/9/7
f 176/47/4 177/48/4 178/9/4
f 177/48/4 179/7/4 178/9/4
f 178/45/7 179/41/7 180/9/7
f 179/41/7 181/7/7 180/9/7
f 180/8/4 181/6/4 182/9/4
f 181/6/4 183/7/4 182/9/4
f 182/45/7 183/41/7 184/9/7
f 183/41/7 185/7/7 184/9/7
f 184/47/4 185/48/4 186/9/4
f 185/48/4 187/7/4 186/9/4
f 186/45/5 187/41/5 188/9/5
f 187/41/5 189/7/5 188/9/5
f 188/49/4 189/21/4 190/9/4
f 189/21/4 191/7/4 190/9/4
f 190/60/7 191/59/7 192/9/7
f 191/59/7 193/7/7 192/9/7
f 192/45/4 193/41/4 194/9/4
f 193/41/4 195/7/4 194/9/4
f 194/8/7 195/6/7 196/9/7
f 195/6/7 197/7/7 196/9/7
f 200/58/5 199/57/5 198/9/5
f 199/57/5 201/7/5 198/9/5
f 204/29/7 203/19/7 202/9/7
f 203/19/7 205/7/7 202/9/7
f 202/8/4 205/6/4 118/9/4
f 205/6/4 120/7/4 118/9/4
f 3/62/5 65/61/5 29/9/5
f 65/61/5 57/7/5 29/9/5
f 208/7/5 207/9/5 206/6/5
f 207/9/5 209/8/5 206/6/5
f 211/7/9 210/63/8 137/57/8
f 210/63/8 134/64/8 137/57/8
f 206/7/5 209/9/5 212/57/5
f 209/9/5 213/58/5 212/57/5
f 212/7/6 213/9/6 214/18/6
f 213/9/6 215/30/6 214/18/6
f 214/7/7 215/9/7 216/48/7
f 215/9/7 217/47/7 216/48/7
f 216/7/6 217/9/6 94/6/6
f 217/9/6 218/8/6 94/6/6
f 94/7/7 218/9/7 92/41/7
f 218/9/7 219/45/7 92/41/7
f 92/7/4 219/9/4 220/19/4
f 219/9/4 221/29/4 220/19/4
f 220/7/7 221/9/7 222/48/7
f 221/9/7 223/47/7 222/48/7
f 222/7/6 223/9/6 224/41/6
f 223/9/6 225/45/6 224/41/6
f 224/7/7 225/9/7 226/6/7
f 225/9/7 227/8/7 226/6/7
f 229/7/5 228/9/5 208/19/5
f 228/9/5 207/29/5 208/19/5
f 232/7/6 231/9/6 230/6/6
f 231/9/6 233/8/6 230/6/6
f 226/7/4 227/9/4 229/18/4
f 227/9/4 228/30/4 229/18/4
f 230/7/5 233/9/5 234/6/5
f 233/9/5 235/8/5 234/6/5
f 234/7/6 235/9/6 236/41/6
f 235/9/6 237/45/6 236/41/6
f 236/7/5 237/9/5 238/19/5
f 237/9/5 239/29/5 238/19/5
f 238/7/4 239/9/4 240/41/4
f 239/9/4 241/45/4 240/41/4
f 240/7/5 241/9/5 242/41/5
f 241/9/5 243/45/5 242/41/5
f 242/7/6 243/9/6 244/6/6
f 243/9/6 245/8/6 244/6/6
f 248/7/4 247/9/4 246/41/4
f 247/9/4 249/45/4 246/41/4
f 246/7/5 249/9/5 250/19/5
f 249/9/5 251/29/5 250/19/5
f 253/7/6 252/9/6 232/18/6
f 252/9/6 231/30/6 232/18/6
f 93/6/4 255/9/4 254/8/4
f 93/6/4 96/7/4 255/9/4
f 95/6/6 257/9/6 256/8/6
f 95/6/6 91/7/6 257/9/6
f 92/6/4 254/9/4 219/8/4
f 92/6/4 93/7/4 254/9/4
f 91/6/6 218/9/6 257/8/6
f 91/6/6 94/7/6 218/9/6
f 99/7/7 258/9/7 97/41/7
f 258/9/7 259/45/7 97/41/7
f 97/7/4 259/9/4 201/41/4
f 259/9/4 198/45/4 201/41/4
f 261/45/5 98/41/5 260/9/5
f 98/41/5 100/7/5 260/9/5
f 260/45/4 100/41/4 204/9/4
f 100/41/4 203/7/4 204/9/4
f 97/19/4 260/9/4 259/29/4
f 97/19/4 100/7/4 260/9/4
f 247/30/7 248/18/7 262/9/7
f 248/18/7 263/7/7 262/9/7
f 244/7/7 245/9/7 264/50/7
f 245/9/7 265/51/7 264/50/7
f 102/41/7 267/9/7 266/45/7
f 102/41/7 103/7/7 267/9/7
f 101/41/5 269/9/5 268/45/5
f 101/41/5 104/7/5 269/9/5
f 105/6/7 266/9/7 270/8/7
f 105/6/7 102/7/7 266/9/7
f 104/6/5 271/9/5 269/8/5
f 104/6/5 106/7/5 271/9/5
f 107/41/7 270/9/7 272/45/7
f 107/41/7 105/7/7 270/9/7
f 106/41/5 273/9/5 271/45/5
f 106/41/5 108/7/5 273/9/5
f 110/65/6 272/9/6 274/49/6
f 110/65/6 111/66/6 272/9/6
f 109/65/4 251/9/4 275/49/4
f 109/65/4 112/66/4 251/9/4
f 252/45/5 253/41/5 268/9/5
f 253/41/5 101/7/5 268/9/5
f 268/45/4 101/41/4 267/9/4
f 101/41/4 103/7/4 267/9/4
f 267/49/4 103/21/4 276/9/4
f 103/21/4 277/7/4 276/9/4
f 276/45/5 277/41/5 278/9/5
f 277/41/5 279/7/5 278/9/5
f 278/45/4 279/41/4 265/9/4
f 279/41/4 264/7/4 265/9/4
f 262/45/6 263/41/6 280/9/6
f 263/41/6 281/7/6 280/9/6
f 280/8/5 281/6/5 251/9/5
f 281/6/5 250/7/5 251/9/5
f 283/9/5 273/45/5 282/7/5
f 273/45/5 108/41/5 282/7/5
f 283/45/4 282/41/4 275/9/4
f 282/41/4 284/7/4 275/9/4
f 275/45/7 284/41/7 272/9/7
f 284/41/7 107/7/7 272/9/7
f 272/45/6 107/41/6 273/9/6
f 107/41/6 108/7/6 273/9/6
f 132/8/7 286/7/7 285/9/7
f 286/7/7 132/8/7 133/6/7
f 285/45/6 286/41/6 287/9/6
f 286/41/6 288/7/6 287/9/6
f 114/67/4 285/9/4 287/45/4
f 114/67/4 115/68/4 285/9/4
f 115/69/7 289/9/7 285/8/7
f 115/69/7 113/68/7 289/9/7
f 113/67/6 136/9/6 289/45/6
f 113/67/6 116/68/6 136/9/6
f 116/69/5 287/9/5 136/8/5
f 116/69/5 114/68/5 287/9/5
f 112/9/4 284/71/4 250/70/4
f 112/9/4 109/49/4 284/71/4
f 111/9/6 290/71/6 107/70/6
f 111/9/6 110/49/6 290/71/6

usemtl texture_antarctic_wall_secret_1
f 2/30/4 66/18/4 8/9/4
f 66/18/4 64/7/4 8/9/4
f 8/8/5 64/6/5 7/9/5
f 64/6/5 62/7/5 7/9/5
f 7/62/5 62/61/5 10/9/5
f 62/61/5 59/7/5 10/9/5
f 10/8/5 59/6/5 28/9/5
f 59/6/5 60/7/5 28/9/5
f 28/30/6 60/18/6 30/9/6
f 60/18/6 56/7/6 30/9/6
f 29/29/4 57/19/4 9/9/4
f 57/19/4 55/7/4 9/9/4
f 9/62/7 55/61/7 5/9/7
f 55/61/7 61/7/7 5/9/7
f 5/29/6 61/19/6 3/9/6
f 61/19/6 65/7/6 3/9/6
f 13/9/4 11/47/4 291/7/4
f 11/47/4 292/48/4 291/7/4
f 292/7/4 11/9/4 293/19/4
f 11/9/4 15/29/4 293/19/4
f 293/7/7 15/9/7 294/18/7
f 15/9/7 19/30/7 294/18/7
f 294/7/6 19/9/6 295/6/6
f 19/9/6 25/8/6 295/6/6
f 295/7/7 25/9/7 296/6/7
f 25/9/7 26/8/7 296/6/7
f 296/7/6 26/9/6 297/19/6
f 26/9/6 24/29/6 297/19/6
f 297/7/5 24/9/5 298/48/5
f 24/9/5 22/47/5 298/48/5
f 298/7/4 22/9/4 299/6/4
f 22/9/4 18/8/4 299/6/4
f 299/7/5 18/9/5 300/41/5
f 18/9/5 14/45/5 300/41/5
f 300/7/6 14/9/6 125/48/6
f 14/9/6 12/47/6 125/48/6
f 33/9/4 31/45/4 68/7/4
f 31/45/4 70/41/4 68/7/4
f 70/7/4 31/9/4 72/6/4
f 31/9/4 35/8/4 72/6/4
f 72/7/7 35/9/7 78/41/7
f 35/9/7 41/45/7 78/41/7
f 78/7/4 41/9/4 77/41/4
f 41/9/4 42/45/4 77/41/4
f 77/7/7 42/9/7 76/41/7
f 42/9/7 39/45/7 76/41/7
f 76/7/4 39/9/4 80/41/4
f 39/9/4 43/45/4 80/41/4
f 80/7/7 43/9/7 79/41/7
f 43/9/7 44/45/7 79/41/7
f 79/7/4 44/9/4 87/6/4
f 44/9/4 49/8/4 87/6/4
f 87/7/7 49/9/7 89/6/7
f 49/9/7 51/8/7 89/6/7
f 89/7/6 51/9/6 90/48/6
f 51/9/6 53/47/6 90/48/6
f 90/7/5 53/9/5 83/41/5
f 53/9/5 54/45/5 83/41/5
f 83/7/6 54/9/6 85/41/6
f 54/9/6 47/45/6 85/41/6
f 85/7/5 47/9/5 84/41/5
f 47/9/5 48/45/5 84/41/5
f 84/7/6 48/9/6 73/41/6
f 48/9/6 38/45/6 73/41/6
f 73/7/5 38/9/5 67/41/5
f 38/9/5 34/45/5 67/41/5
f 67/7/6 34/9/6 69/41/6
f 34/9/6 32/45/6 69/41/6

usemtl texture_antarctic_wall_1a
f 13/9/7 291/7/7 128/72/7
f 291/7/7 127/73/7 128/72/7
f 301/37/7 141/9/7 139/47/7
f 301/37/7 302/5/7 141/9/7
f 304/37/5 206/9/5 303/47/5
f 304/37/5 305/5/5 206/9/5
f 302/1/7 191/9/7 141/8/7
f 302/1/7 306/5/7 191/9/7
f 307/1/5 303/9/5 212/8/5
f 307/1/5 304/5/5 303/9/5
f 308/1/7 139/9/7 211/8/7
f 308/1/7 301/5/7 139/9/7
f 305/1/5 208/9/5 206/8/5
f 305/1/5 309/5/5 208/9/5
f 311/15/7 211/9/7 310/29/7
f 311/15/7 308/5/7 211/9/7
f 309/15/5 229/9/5 208/29/5
f 309/15/5 312/5/5 229/9/5
f 313/37/5 108/9/5 101/47/5
f 313/37/5 314/5/5 108/9/5
f 315/37/11 137/74/11 131/47/10
f 315/37/11 316/75/12 137/74/11
f 312/1/5 253/9/5 229/8/5
f 312/1/5 317/5/5 253/9/5
f 319/1/7 310/9/7 318/8/7
f 319/1/7 311/5/7 310/9/7
f 317/40/5 101/9/5 253/45/5
f 317/40/5 313/5/5 101/9/5
f 316/40/14 318/9/14 137/76/13
f 316/40/14 319/5/7 318/9/14
f 314/40/5 282/9/5 108/45/5
f 314/40/5 320/5/5 282/9/5
f 322/40/7 131/9/7 321/45/7
f 322/40/7 315/5/7 131/9/7
f 320/1/5 323/9/5 282/8/5
f 320/1/5 324/5/5 323/9/5
f 324/1/6 129/9/6 323/8/6
f 324/1/6 325/5/6 129/9/6
f 325/1/7 321/9/7 129/8/7
f 325/1/7 322/5/7 321/9/7
f 328/77/7 327/9/7 326/58/7
f 328/77/7 329/5/7 327/9/7
f 330/77/5 201/9/5 199/58/5
f 330/77/5 331/5/5 201/9/5
f 306/1/7 326/9/7 191/8/7
f 306/1/7 328/5/7 326/9/7
f 331/1/5 212/9/5 201/8/5
f 331/1/5 307/5/5 212/9/5
f 329/37/7 193/9/7 327/47/7
f 329/37/7 332/5/7 193/9/7
f 332/1/4 333/9/4 193/8/4
f 332/1/4 334/5/4 333/9/4
f 334/37/5 199/9/5 333/47/5
f 334/37/5 330/5/5 199/9/5

usemtl texture_antarctic_wall_metal_2
f 210/30/6 211/18/6 335/9/6
f 211/18/6 336/7/6 335/9/6
f 335/58/5 336/57/5 337/9/5
f 336/57/5 338/7/5 337/9/5
f 337/45/4 338/41/4 339/9/4
f 338/41/4 340/7/4 339/9/4
f 339/30/7 340/18/7 341/9/7
f 340/18/7 342/7/7 341/9/7
f 341/29/4 342/19/4 343/9/4
f 342/19/4 344/7/4 343/9/4
f 343/29/5 344/19/5 345/9/5
f 344/19/5 346/7/5 345/9/5
f 345/45/6 346/41/6 347/9/6
f 346/41/6 348/7/6 347/9/6
f 287/30/6 288/18/6 349/9/6
f 288/18/6 350/7/6 349/9/6
f 349/30/7 350/18/7 32/9/7
f 350/18/7 69/7/7 32/9/7
f 33/29/7 68/19/7 351/9/7
f 68/19/7 352/7/7 351/9/7
f 351/49/4 352/21/4 140/9/4
f 352/21/4 139/7/4 140/9/4
f 347/8/5 348/6/5 136/9/5
f 348/6/5 135/7/5 136/9/5

usemtl texture_antarctic_exit
f 162/8/7 163/6/7 166/9/7
f 163/6/7 165/7/7 166/9/7

usemtl texture_antarctic_alienwall_02
f 196/58/4 197/57/4 353/9/4
f 197/57/4 354/7/4 353/9/4
f 353/45/5 354/41/5 355/9/5
f 354/41/5 356/7/5 355/9/5
f 355/8/4 356/6/4 357/9/4
f 356/6/4 358/7/4 357/9/4
f 357/45/5 358/41/5 359/9/5
f 358/41/5 360/7/5 359/9/5
f 359/29/4 360/19/4 361/9/4
f 360/19/4 362/7/4 361/9/4
f 365/58/6 364/57/6 363/9/6
f 364/57/6 366/7/6 363/9/6
f 363/30/5 366/18/5 261/9/5
f 366/18/5 98/7/5 261/9/5
f 258/30/7 99/18/7 367/9/7
f 99/18/7 368/7/7 367/9/7
f 367/45/6 368/41/6 200/9/6
f 368/41/6 199/7/6 200/9/6
f 98/19/6 258/9/6 261/29/6
f 98/19/6 99/7/6 258/9/6

usemtl texture_antarctic_alienwall_03
f 361/47/5 362/48/5 365/9/5
f 362/48/5 364/7/5 365/9/5

usemtl texture_antarctic_floor_snow_1
f 371/7/3 370/9/3 369/48/3
f 370/9/3 372/47/3 369/48/3
f 372/37/3 370/5/3 373/47/3
f 370/5/3 374/9/3 373/47/3
f 372/5/3 373/9/3 375/1/3
f 373/9/3 376/8/3 375/1/3
f 369/7/3 372/9/3 377/6/3
f 372/9/3 375/8/3 377/6/3
f 375/5/3 376/9/3 378/15/3
f 376/9/3 379/29/3 378/15/3
f 377/7/3 375/9/3 380/19/3
f 375/9/3 378/29/3 380/19/3

usemtl texture_antarctic_ceiling_1
f 96/8/3 92/1/3 381/9/3
f 92/1/3 242/5/3 381/9/3
f 242/9/3 92/8/3 382/43/3
f 92/8/3 220/34/3 382/43/3
f 242/45/3 382/44/3 240/9/3
f 382/44/3 383/43/3 240/9/3
f 240/45/3 383/44/3 384/9/3
f 383/44/3 222/43/3 384/9/3
f 240/46/3 384/4/3 238/45/3
f 384/4/3 385/9/3 238/45/3
f 385/8/3 384/35/3 236/9/3
f 384/35/3 234/4/3 236/9/3
f 234/9/3 384/8/3 226/7/3
f 384/8/3 224/6/3 226/7/3
f 234/8/3 226/6/3 230/9/3
f 226/6/3 232/7/3 230/9/3
f 232/9/3 226/8/3 253/2/3
f 226/8/3 229/3/3 253/2/3
f 141/9/3 191/8/3 386/12/3
f 191/8/3 189/13/3 386/12/3
f 201/3/3 212/2/3 203/8/3
f 212/2/3 214/9/3 203/8/3
f 333/78/3 199/4/3 387/47/3
f 199/4/3 368/9/3 387/47/3
f 333/4/3 387/9/3 388/35/3
f 387/9/3 389/8/3 388/35/3
f 333/9/3 388/8/3 195/4/3
f 388/8/3 197/35/3 195/4/3
f 389/34/3 387/43/3 390/8/3
f 387/43/3 391/9/3 390/8/3
f 387/36/3 368/43/3 391/47/3
f 368/43/3 366/9/3 391/47/3
f 366/45/3 368/44/3 392/9/3
f 368/44/3 393/43/3 392/9/3
f 392/47/3 393/36/3 98/9/3
f 393/36/3 99/43/3 98/9/3
f 98/45/3 99/44/3 100/9/3
f 99/44/3 97/43/3 100/9/3
f 391/78/3 366/4/3 394/47/3
f 366/4/3 395/9/3 394/47/3
f 390/35/3 391/4/3 354/8/3
f 391/4/3 394/9/3 354/8/3
f 394/48/3 395/7/3 360/47/3
f 395/7/3 396/9/3 360/47/3
f 394/7/3 360/9/3 356/41/3
f 360/9/3 358/45/3 356/41/3
f 360/36/3 396/43/3 362/47/3
f 396/43/3 364/9/3 362/47/3
f 131/9/16 137/79/15 397/7/15
f 137/79/15 288/6/17 397/7/15
f 282/81/3 323/80/3 398/8/3
f 323/80/3 127/9/3 398/8/3
f 398/6/3 127/7/3 250/8/3
f 127/7/3 399/9/3 250/8/3
f 399/45/3 127/41/3 246/9/3
f 127/41/3 291/7/3 246/9/3
f 246/8/3 291/6/3 400/9/3
f 291/6/3 125/7/3 400/9/3
f 246/35/3 400/4/3 248/8/3
f 400/4/3 401/9/3 248/8/3
f 248/6/3 401/7/3 402/8/3
f 401/7/3 124/9/3 402/8/3
f 248/7/3 402/9/3 263/18/3
f 402/9/3 56/30/3 263/18/3
f 263/7/3 56/9/3 264/6/3
f 56/9/3 57/8/3 264/6/3
f 263/9/3 264/8/3 281/4/3
f 264/8/3 279/35/3 281/4/3
f 281/9/3 279/8/3 105/12/3
f 279/8/3 102/13/3 105/12/3
f 102/12/3 279/9/3 103/42/3
f 279/9/3 277/45/3 103/42/3
f 264/7/3 57/9/3 244/50/3
f 57/9/3 381/51/3 244/50/3
f 211/9/3 139/8/3 336/2/3
f 139/8/3 403/3/3 336/2/3
f 336/9/3 403/8/3 404/7/3
f 403/8/3 352/6/3 404/7/3
f 336/45/3 404/41/3 405/9/3
f 404/41/3 68/7/3 405/9/3
f 405/8/3 68/6/3 406/9/3
f 68/6/3 69/7/3 406/9/3
f 406/29/3 69/19/3 338/9/3
f 69/19/3 407/7/3 338/9/3
f 338/8/3 407/6/3 408/9/3
f 407/6/3 350/7/3 408/9/3
f 338/35/3 408/4/3 340/8/3
f 408/4/3 409/9/3 340/8/3
f 340/6/3 409/7/3 135/8/3
f 409/7/3 288/9/3 135/8/3
f 340/7/3 135/9/3 342/18/3
f 135/9/3 410/30/3 342/18/3
f 410/28/3 135/4/3 344/30/3
f 135/4/3 346/8/3 344/30/3
f 386/9/3 189/8/3 143/7/3
f 189/8/3 411/6/3 143/7/3
f 411/7/3 189/9/3 412/41/3
f 189/9/3 187/45/3 412/41/3
f 411/9/3 412/45/3 183/7/3
f 412/45/3 185/41/3 183/7/3
f 143/9/3 411/8/3 413/7/3
f 411/8/3 183/6/3 413/7/3
f 143/45/3 413/41/3 145/9/3
f 413/41/3 414/7/3 145/9/3
f 413/9/3 183/8/3 415/7/3
f 183/8/3 181/6/3 415/7/3
f 414/9/3 413/45/3 416/7/3
f 413/45/3 415/41/3 416/7/3
f 416/9/3 415/45/3 147/7/3
f 415/45/3 417/41/3 147/7/3
f 417/7/3 415/9/3 418/41/3
f 415/9/3 179/45/3 418/41/3
f 417/9/3 418/45/3 419/7/3
f 418/45/3 177/41/3 419/7/3
f 417/8/3 419/6/3 149/9/3
f 419/6/3 420/7/3 149/9/3
f 149/47/3 420/48/3 421/9/3
f 420/48/3 175/7/3 421/9/3
f 149/78/3 421/4/3 151/47/3
f 421/4/3 422/9/3 151/47/3
f 422/8/3 421/35/3 153/9/3
f 421/35/3 423/4/3 153/9/3
f 423/9/3 421/8/3 155/5/3
f 421/8/3 173/1/3 155/5/3
f 155/9/3 173/8/3 161/5/3
f 173/8/3 167/1/3 161/5/3
f 161/9/3 167/8/3 163/7/3
f 167/8/3 165/6/3 163/7/3
f 167/5/3 173/9/3 169/40/3
f 173/9/3 171/45/3 169/40/3
f 155/45/3 161/40/3 157/9/3
f 161/40/3 159/5/3 157/9/3
f 288/7/17 137/82/17 135/6/17
f 424/9/7 96/83/7 95/70/7
f 424/9/7 425/45/7 96/83/7
f 426/9/5 94/83/5 92/70/5
f 426/9/5 427/45/5 94/83/5
f 428/9/6 103/83/6 101/70/6
f 428/9/6 429/45/6 103/83/6
f 111/9/4 108/83/4 107/70/4
f 111/9/4 430/45/4 108/83/4
f 281/45/3 107/12/3 290/9/3
f 107/12/3 281/45/3 105/42/3
f 110/45/3 109/12/3 112/9/3
f 109/12/3 110/45/3 111/42/3
f 110/9/7 250/83/7 290/70/7
f 110/9/7 112/45/7 250/83/7
f 109/9/5 107/83/5 284/70/5
f 109/9/5 111/45/5 107/83/5
f 101/4/2 108/9/2 101/9/2
f 101/9/2 108/4/2 108/9/2
f 313/4/2 101/9/2 313/9/2
f 313/9/2 101/4/2 101/9/2
f 108/4/2 314/9/2 108/9/2
f 108/9/2 314/4/2 314/9/2
f 314/4/2 313/9/2 314/9/2
f 314/9/2 313/4/2 313/9/2

usemtl texture_antarctic_floor_secret_1
f 125/9/3 291/8/3 300/5/3
f 291/8/3 292/1/3 300/5/3
f 300/9/3 292/8/3 431/43/3
f 292/8/3 293/34/3 431/43/3
f 300/45/3 431/44/3 299/9/3
f 431/44/3 432/43/3 299/9/3
f 299/8/3 432/34/3 433/9/3
f 432/34/3 294/43/3 433/9/3
f 299/6/3 433/7/3 298/8/3
f 433/7/3 434/9/3 298/8/3
f 434/8/3 433/6/3 297/9/3
f 433/6/3 435/7/3 297/9/3
f 435/9/3 433/8/3 296/4/3
f 433/8/3 295/35/3 296/4/3

usemtl texture_rock_wall_14
f 373/37/5 95/9/5 65/47/5
f 373/37/5 374/5/5 95/9/5
f 374/37/6 94/9/6 95/47/6
f 374/37/6 370/5/6 94/9/6
f 377/15/7 205/9/7 203/29/7
f 377/15/7 380/5/7 205/9/7
f 380/1/4 120/9/4 205/8/4
f 380/1/4 378/5/4 120/9/4
f 378/37/4 117/9/4 120/47/4
f 378/37/4 379/5/4 117/9/4
f 379/15/5 66/9/5 117/29/5
f 379/15/5 376/5/5 66/9/5
f 376/1/5 65/9/5 66/8/5
f 376/1/5 373/5/5 65/9/5
f 369/1/7 203/9/7 214/8/7
f 369/1/7 377/5/7 203/9/7
f 370/1/6 216/9/6 94/8/6
f 370/1/6 371/5/6 216/9/6
f 371/37/7 214/9/7 216/47/7
f 371/37/7 369/5/7 214/9/7

