# WaveFront *.obj file (generated by CINEMA 4D)

mtllib ./MINIMAP.mtl

v 1 -3 3
v -1 -3 3
v 1 -3 -1
v -1 -3 -1
v 4 -3 -1
v 4 -3 3
v -2 -3 3
v -2 -3 -1
v -1 -3 5
v -2 -3 5
v 1 -3 5
v 4 -3 5
v -4 -3 5
v -4 -3 3
v -4 -3 -1
v -5 -3 5
v -5 -3 3
v -5 -3 -1
v 1 -3 6
v -1 -3 6
v 1 -3 10
v -1 -3 10
v 1 -3 12
v -1 -3 12
v 3 -3 10
v 3 -3 12
v 4 -3 10
v 4 -3 12
v 7 -3 10
v 7 -3 12
v 11 -3 10
v 11 -3 12
v 7 -3 9
v 11 -3 9
v 7 -3 6
v 11 -3 6
v 2 -3 9
v 2 -3 6
v 12 -3 9
v 12 -3 10
v 12 -3 6
v 11 -3 5
v 12 -3 5
v 7 -3 5
v 7 -3 3
v 11 -3 3
v 12 -3 3
v 12 -3 11
v 11 -3 11
v 13 -3 10
v 13 -3 11
v 13 -3 9
v 13 -3 6
v 13 -3 5
v 7 -3 0
v 11 -3 0
v -3 -3 12
v -3 -3 10
v -1 -3 15
v -3 -3 15
v -1 -3 16
v -3 -3 16
v -1 -3 19
v -3 -3 19
v -1 -3 21
v -3 -3 21
v 0 -3 19
v 0 -3 21
v -1 -3 23
v -3 -3 23
v 0 -3 23
v -4 -3 23
v -4 -3 21
v -1 -3 25
v -3 -3 25
v -4 -3 25
v -3 -3 27
v -4 -3 27
v -2 -3 25
v -2 -3 27
v -3 -3 29
v -4 -3 29
v -2 -3 29
v -5 -3 29
v -5 -3 27
v -9 -3 29
v -9 -3 27
v -9 -3 26
v -5 -3 26
v -11 -3 29
v -11 -3 27
v -11 -3 26
v -9 -3 31
v -11 -3 31
v -9 -3 35
v -11 -3 35
v -12 -3 35
v -12 -3 31
v -8 -3 31
v -8 -3 35
v -9 -3 37
v -11 -3 37
v -7 -3 12
v -7 -3 10
v -9 -3 12
v -9 -3 10
v -7 -3 17
v -9 -3 17
v -7 -3 19
v -9 -3 19
v -10 -3 19
v -10 -3 17
v -12 -3 19
v -12 -3 17
v -15 -3 19
v -15 -3 17
v -17 -3 19
v -17 -3 17
v -17 -3 16
v -15 -3 16
v -17 -3 14
v -13 -3 14
v -10 -3 14
v -10 -3 16
v -13 -3 13
v -10 -3 13
v -15 -3 12.00000095367432
v -15 -3 10
v -19 -3 12
v -19 -3 10
v -19 -3 14
v -20 -3 12
v -20 -3 10
v -22 -3 12
v -22 -3 10
v -22 -3 4
v -20 -3 4
v -22 -3 2
v -20 -3 2
v -23 -3 4
v -23 -3 2
v -25 -3 4
v -25 -3 2
v -25 -3 1
v -23 -3 1
v -25 -3 -1
v -23 -3 -1
v -21 -3 -1
v -21 -3 1
v -20 -3 -1
v -20 -3 1
v -18 -3 -1
v -18 -3 1
v -16 -3 -1
v -16 -3 1
v -14 -3 -1
v -14 -3 1
v -8 -3 -1
v -8 -3 1
v -6 -3 -1
v -6 -3 1
v -6 -3 3
v -8 -3 3
v -6 -3 6
v -8 -3 6
v -9 -3 6
v -9 -3 3
v -10 -3 6
v -10 -3 3
v -10 -3 2
v -9 -3 2
v -12 -3 3
v -12 -3 2
v -10 -3 5
v -12 -3 5
v -14 -3 5
v -14 -3 3
v -12 -3 10
v -14 -3 10
v -16 -3 2
v -18 -3 2
v -16 -3 9
v -18 -3 9
v -19 -3 9
v -19 -3 2
v -15 -3 2
v -15 -3 9
v -15 -3 14
# 188 vertices

vn 0 1 0
vn 0 0 0
# 2 normals

vt 0 4 0
vt 2 4 0
vt 0 0 0
vt 0 1 0
vt 2 0 0
vt 3 4 0
vt 3 0 0
vt 1 4 0
vt 1 0 0
vt 0 2 0
vt 1 2 0
vt 2 2 0
vt 3 2 0
vt 2 1 0
vt 4 2 0
vt 4 0 0
vt 4 1 0
vt 0 3 0
vt 4 3 0
vt 5 3 0
vt 5 0 0
vt 1 1 0
vt 1 3 0
vt 2 3 0
vt 0 5 0
vt 2 5 0
vt 7 0 0
vt 5 2 0
vt 7 2 0
vt 3 1 0
vt 6 2 0
vt 6 0 0
vt 0 0.00000095367432 0
vt 0 6 0
vt 2 6 0
vt 0 7 0
vt 2 7 0
vt 1 7 0
# 38 texture coordinates

o MINIMAP
usemtl MINIMAP_FLOOR
f 3/3/1 2/2/1 1/1/1
f 3/3/1 4/5/1 2/2/1
f 3/7/1 1/6/1 5/3/1
f 1/6/1 6/1/1 5/3/1
f 2/1/1 4/3/1 7/8/1
f 4/3/1 8/9/1 7/8/1
f 2/3/1 7/9/1 9/10/1
f 7/9/1 10/11/1 9/10/1
f 1/3/1 2/5/1 11/10/1
f 2/5/1 9/12/1 11/10/1
f 6/3/1 1/7/1 12/10/1
f 1/7/1 11/13/1 12/10/1
f 10/10/1 7/3/1 13/12/1
f 7/3/1 14/5/1 13/12/1
f 7/1/1 8/3/1 14/2/1
f 8/3/1 15/5/1 14/2/1
f 13/10/1 14/3/1 16/11/1
f 14/3/1 17/9/1 16/11/1
f 14/1/1 15/3/1 17/8/1
f 15/3/1 18/9/1 17/8/1
f 11/3/1 9/5/1 19/4/1
f 9/5/1 20/14/1 19/4/1
f 19/3/1 20/5/1 21/1/1
f 20/5/1 22/2/1 21/1/1
f 21/3/1 22/5/1 23/10/1
f 22/5/1 24/12/1 23/10/1
f 21/5/1 23/12/1 25/3/1
f 23/12/1 26/10/1 25/3/1
f 25/9/1 26/11/1 27/3/1
f 26/11/1 28/10/1 27/3/1
f 27/7/1 28/13/1 29/3/1
f 28/13/1 30/10/1 29/3/1
f 29/16/1 30/15/1 31/3/1
f 30/15/1 32/10/1 31/3/1
f 29/17/1 31/4/1 33/16/1
f 31/4/1 34/3/1 33/16/1
f 33/19/1 34/18/1 35/16/1
f 34/18/1 36/3/1 35/16/1
f 33/18/1 35/3/1 37/20/1
f 35/3/1 38/21/1 37/20/1
f 34/9/1 31/22/1 39/3/1
f 31/22/1 40/4/1 39/3/1
f 36/9/1 34/23/1 41/3/1
f 34/23/1 39/18/1 41/3/1
f 36/22/1 41/4/1 42/9/1
f 41/4/1 43/3/1 42/9/1
f 35/17/1 36/4/1 44/16/1
f 36/4/1 42/3/1 44/16/1
f 44/15/1 42/10/1 45/16/1
f 42/10/1 46/3/1 45/16/1
f 42/11/1 43/10/1 46/9/1
f 43/10/1 47/3/1 46/9/1
f 40/3/1 31/9/1 48/4/1
f 31/9/1 49/22/1 48/4/1
f 40/9/1 48/22/1 50/3/1
f 48/22/1 51/4/1 50/3/1
f 39/9/1 40/22/1 52/3/1
f 40/22/1 50/4/1 52/3/1
f 41/9/1 39/23/1 53/3/1
f 39/23/1 52/18/1 53/3/1
f 43/9/1 41/22/1 54/3/1
f 41/22/1 53/4/1 54/3/1
f 45/19/1 46/18/1 55/16/1
f 46/18/1 56/3/1 55/16/1
f 24/10/1 22/3/1 57/12/1
f 22/3/1 58/5/1 57/12/1
f 24/3/1 57/5/1 59/18/1
f 57/5/1 60/24/1 59/18/1
f 59/3/1 60/5/1 61/4/1
f 60/5/1 62/14/1 61/4/1
f 61/3/1 62/5/1 63/18/1
f 62/5/1 64/24/1 63/18/1
f 63/3/1 64/5/1 65/10/1
f 64/5/1 66/12/1 65/10/1
f 63/9/1 65/11/1 67/3/1
f 65/11/1 68/10/1 67/3/1
f 65/3/1 66/5/1 69/10/1
f 66/5/1 70/12/1 69/10/1
f 68/3/1 65/9/1 71/10/1
f 65/9/1 69/11/1 71/10/1
f 70/10/1 66/3/1 72/11/1
f 66/3/1 73/9/1 72/11/1
f 69/3/1 70/5/1 74/10/1
f 70/5/1 75/12/1 74/10/1
f 70/3/1 72/9/1 75/10/1
f 72/9/1 76/11/1 75/10/1
f 75/3/1 76/9/1 77/10/1
f 76/9/1 78/11/1 77/10/1
f 75/9/1 77/11/1 79/3/1
f 77/11/1 80/10/1 79/3/1
f 77/3/1 78/9/1 81/10/1
f 78/9/1 82/11/1 81/10/1
f 80/3/1 77/9/1 83/10/1
f 77/9/1 81/11/1 83/10/1
f 82/10/1 78/3/1 84/11/1
f 78/3/1 85/9/1 84/11/1
f 84/10/1 85/3/1 86/15/1
f 85/3/1 87/16/1 86/15/1
f 87/17/1 85/4/1 88/16/1
f 85/4/1 89/3/1 88/16/1
f 86/10/1 87/3/1 90/12/1
f 87/3/1 91/5/1 90/12/1
f 87/4/1 88/3/1 91/14/1
f 88/3/1 92/5/1 91/14/1
f 86/3/1 90/5/1 93/10/1
f 90/5/1 94/12/1 93/10/1
f 93/3/1 94/5/1 95/1/1
f 94/5/1 96/2/1 95/1/1
f 96/1/1 94/3/1 97/8/1
f 94/3/1 98/9/1 97/8/1
f 93/9/1 95/8/1 99/3/1
f 95/8/1 100/1/1 99/3/1
f 95/3/1 96/5/1 101/10/1
f 96/5/1 102/12/1 101/10/1
f 57/10/1 58/3/1 103/15/1
f 58/3/1 104/16/1 103/15/1
f 103/10/1 104/3/1 105/12/1
f 104/3/1 106/5/1 105/12/1
f 103/3/1 105/5/1 107/25/1
f 105/5/1 108/26/1 107/25/1
f 107/3/1 108/5/1 109/10/1
f 108/5/1 110/12/1 109/10/1
f 110/10/1 108/3/1 111/11/1
f 108/3/1 112/9/1 111/11/1
f 111/10/1 112/3/1 113/12/1
f 112/3/1 114/5/1 113/12/1
f 113/10/1 114/3/1 115/13/1
f 114/3/1 116/7/1 115/13/1
f 115/10/1 116/3/1 117/12/1
f 116/3/1 118/5/1 117/12/1
f 118/14/1 116/4/1 119/5/1
f 116/4/1 120/3/1 119/5/1
f 119/29/1 120/28/1 121/27/1
f 120/28/1 122/7/1 121/27/1
f 122/7/1 120/28/1 123/3/1
f 120/28/1 124/10/1 123/3/1
f 122/30/1 123/4/1 125/7/1
f 123/4/1 126/3/1 125/7/1
f 105/10/1 106/3/1 127/31/1
f 106/3/1 128/32/1 127/31/1
f 127/10/1 128/3/1 129/15/1
f 128/3/1 130/16/1 129/15/1
f 127/33/1 129/16/1 121/12/1
f 129/16/1 131/15/1 121/12/1
f 129/10/1 130/3/1 132/11/1
f 130/3/1 133/9/1 132/11/1
f 132/10/1 133/3/1 134/12/1
f 133/3/1 135/5/1 134/12/1
f 135/35/1 133/34/1 136/5/1
f 133/34/1 137/3/1 136/5/1
f 136/12/1 137/10/1 138/5/1
f 137/10/1 139/3/1 138/5/1
f 136/10/1 138/3/1 140/11/1
f 138/3/1 141/9/1 140/11/1
f 140/10/1 141/3/1 142/12/1
f 141/3/1 143/5/1 142/12/1
f 143/14/1 141/4/1 144/5/1
f 141/4/1 145/3/1 144/5/1
f 144/12/1 145/10/1 146/5/1
f 145/10/1 147/3/1 146/5/1
f 147/5/1 145/12/1 148/3/1
f 145/12/1 149/10/1 148/3/1
f 148/9/1 149/11/1 150/3/1
f 149/11/1 151/10/1 150/3/1
f 150/5/1 151/12/1 152/3/1
f 151/12/1 153/10/1 152/3/1
f 152/5/1 153/12/1 154/3/1
f 153/12/1 155/10/1 154/3/1
f 154/5/1 155/12/1 156/3/1
f 155/12/1 157/10/1 156/3/1
f 156/32/1 157/31/1 158/3/1
f 157/31/1 159/10/1 158/3/1
f 158/5/1 159/12/1 160/3/1
f 159/12/1 161/10/1 160/3/1
f 161/3/1 159/5/1 162/10/1
f 159/5/1 163/12/1 162/10/1
f 162/3/1 163/5/1 164/18/1
f 163/5/1 165/24/1 164/18/1
f 165/18/1 163/3/1 166/23/1
f 163/3/1 167/9/1 166/23/1
f 166/18/1 167/3/1 168/23/1
f 167/3/1 169/9/1 168/23/1
f 169/22/1 167/4/1 170/9/1
f 167/4/1 171/3/1 170/9/1
f 169/4/1 170/3/1 172/14/1
f 170/3/1 173/5/1 172/14/1
f 169/3/1 172/5/1 174/10/1
f 172/5/1 175/12/1 174/10/1
f 175/10/1 172/3/1 176/12/1
f 172/3/1 177/5/1 176/12/1
f 175/3/1 176/5/1 178/25/1
f 176/5/1 179/26/1 178/25/1
f 155/3/1 153/5/1 180/4/1
f 153/5/1 181/14/1 180/4/1
f 180/3/1 181/5/1 182/36/1
f 181/5/1 183/37/1 182/36/1
f 183/36/1 181/3/1 184/38/1
f 181/3/1 185/9/1 184/38/1
f 180/9/1 182/38/1 186/3/1
f 182/38/1 187/36/1 186/3/1
f 121/12/1 188/10/1 127/33/1

