# WaveFront *.obj file (generated by CINEMA 4D)

mtllib ./Bars.mtl

v -12 1 7
v -12 3 2
v -12 1 2
v -12 3 7
v -9 1 7
v -9 3 7
v -9 1 11
v -9 3 11
v -7 3 7
v -7 1 2
v -7 3 2
v -7 1 7
v -7 3 11
v -7 1 11
v -7 3 12
v -7 1 12
v -9 1 12
v -9 3 12
v -17 1 12
v -17 3 12
v -7 3 16
v -7 1 16
v -17 3 16
v -17 1 16
v -13 3 -5
v -13 1 -8
v -13 1 -5
v -13 3 -8
v -10 3 -8
v -10 1 -5
v -10 1 -8
v -10 3 -5
v -13 3 -12
v -13 1 -12
v -10 1 -12
v -10 3 -12
v -10 1 -13
v -10 3 -13
v -13 3 -13
v -13 1 -13
v -14 3 -13
v -14 1 -13
v -9 1 -13
v -9 3 -13
v -9 1 -15
v -9 3 -15
v -24 3 -13
v -24 1 -13
v -26 3 -13
v -26 1 -13
v -26 3 -15
v -26 1 -15
v -26 3 -17
v -26 1 -17
v -26 3 -19
v -26 1 -19
v -26 3 -20
v -26 1 -20
v -24 3 -20
v -24 1 -20
v -24 3 -19
v -24 1 -19
v -18 3 -19
v -18 1 -19
v -18 3 -25
v -18 1 -25
v -19 3 -25
v -19 1 -25
v -19 3 -23
v -19 1 -23
v -29 3 -23
v -29 1 -23
v -29 3 -29
v -29 1 -29
v -27 3 -29
v -27 1 -29
v -27 3 -30
v -27 1 -30
v -25 3 -29
v -25 1 -30
v -25 3 -30
v -25 1 -29
v -19 3 -29
v -19 1 -29
v -19 3 -27
v -19 1 -27
v -16 3 -27
v -16 1 -27
v -16 3 -17
v -16 1 -17
v -24 3 -17
v -24 1 -17
v -24 3 -15
v -24 1 -15
v -11 3 -15
v -11 1 -15
v -11 3 -26
v -11 1 -26
v -3 3 -26
v -3 1 -26
v -9 1 -23
v -9 3 -23
v -9 1 -24
v -9 3 -24
v -1 1 -24
v -1 3 -24
v -1 1 -34
v -1 3 -34
v -3 1 -34
v -3 3 -34
v -3 3 -30
v -3 1 -30
v -3 3 -31
v -3 1 -31
v -12 3 -29
v -4 1 -29
v -4 3 -29
v -12 1 -29
v -12 3 -31
v -12 1 -31
v -4 1 -31
v -4 3 -31
v -3 1 -33
v -3 3 -33
v -4 1 -33
v -4 3 -33
v -4 1 -35
v -4 3 -35
v -12 1 -35
v -12 3 -35
v -12 1 -33
v -12 3 -33
v -13 1 -33
v -13 3 -33
v -13 3 -31
v -13 1 -31
v -19 3 -31
v -19 1 -31
v -19 3 -37
v -19 1 -37
v -17 1 -33
v -17 3 -33
v -17 1 -37
v -17 3 -37
v -23 3 -37
v -23 1 -37
v -17 1 -39
v -17 3 -39
v -23 1 -39
v -23 3 -39
v -27 3 -31
v -27 1 -31
v -25 1 -31
v -25 3 -31
v -27 3 -34
v -27 1 -34
v -25 1 -34
v -25 3 -34
v -27 3 -35
v -27 1 -35
# 160 vertices

vn 1 0 0
vn 0 0 0
vn 0 0 -1
vn -1 0 0
vn 0 0 1
# 5 normals

vt 0 0 0
vt 5 2 0
vt 5 0 0
vt 0 1 0
vt 0 2 0
vt 3 2 0
vt 3 0 0
vt 4 2 0
vt 4 0 0
vt 1 2 0
vt 1 0 0
vt 8 2 0
vt 8 0 0
vt 10 2 0
vt 10 0 0
vt 2 2 0
vt 2 0 0
vt 6 2 0
vt 6 0 0
vt 13 2 0
vt 13 0 0
vt 11 2 0
vt 11 0 0
# 23 texture coordinates

o BARS
usemtl TEXTURE_GRAVEYARD_fence
f 3/3/1 2/2/1 1/1/1
f 2/2/1 4/5/1 1/1/1
f 1/7/3 4/6/3 5/1/3
f 4/6/3 6/5/3 5/1/3
f 5/9/1 6/8/1 7/1/1
f 6/8/1 8/5/1 7/1/1
f 11/5/4 10/1/4 9/2/4
f 10/1/4 12/3/4 9/2/4
f 9/5/4 12/1/4 13/8/4
f 12/1/4 14/9/4 13/8/4
f 13/5/4 14/1/4 15/10/4
f 14/1/4 16/11/4 15/10/4
f 7/11/1 8/10/1 17/1/1
f 8/10/1 18/5/1 17/1/1
f 17/13/5 18/12/5 19/1/5
f 18/12/5 20/5/5 19/1/5
f 15/5/4 16/1/4 21/8/4
f 16/1/4 22/9/4 21/8/4
f 21/5/3 22/1/3 23/14/3
f 22/1/3 24/15/3 23/14/3
f 27/1/1 26/7/1 25/5/1
f 26/7/1 28/6/1 25/5/1
f 31/1/4 30/7/4 29/5/4
f 30/7/4 32/6/4 29/5/4
f 28/5/1 26/1/1 33/8/1
f 26/1/1 34/9/1 33/8/1
f 31/9/4 29/8/4 35/1/4
f 29/8/4 36/5/4 35/1/4
f 35/11/4 36/10/4 37/1/4
f 36/10/4 38/5/4 37/1/4
f 33/5/1 34/1/1 39/10/1
f 34/1/1 40/11/1 39/10/1
f 39/5/3 40/1/3 41/10/3
f 40/1/3 42/11/3 41/10/3
f 37/11/3 38/10/3 43/1/3
f 38/10/3 44/5/3 43/1/3
f 43/17/4 44/16/4 45/1/4
f 44/16/4 46/5/4 45/1/4
f 41/5/3 42/1/3 47/14/3
f 42/1/3 48/15/3 47/14/3
f 47/5/3 48/1/3 49/16/3
f 48/1/3 50/17/3 49/16/3
f 49/5/1 50/1/1 51/16/1
f 50/1/1 52/17/1 51/16/1
f 51/5/1 52/1/1 53/16/1
f 52/1/1 54/17/1 53/16/1
f 53/5/1 54/1/1 55/16/1
f 54/1/1 56/17/1 55/16/1
f 55/5/1 56/1/1 57/10/1
f 56/1/1 58/11/1 57/10/1
f 57/5/5 58/1/5 59/16/5
f 58/1/5 60/17/5 59/16/5
f 59/5/4 60/1/4 61/10/4
f 60/1/4 62/11/4 61/10/4
f 61/5/5 62/1/5 63/18/5
f 62/1/5 64/19/5 63/18/5
f 63/5/1 64/1/1 65/18/1
f 64/1/1 66/19/1 65/18/1
f 65/5/3 66/1/3 67/10/3
f 66/1/3 68/11/3 67/10/3
f 67/5/4 68/1/4 69/16/4
f 68/1/4 70/17/4 69/16/4
f 69/5/3 70/1/3 71/14/3
f 70/1/3 72/15/3 71/14/3
f 71/5/1 72/1/1 73/18/1
f 72/1/1 74/19/1 73/18/1
f 73/5/5 74/1/5 75/16/5
f 74/1/5 76/17/5 75/16/5
f 75/5/1 76/1/1 77/10/1
f 76/1/1 78/11/1 77/10/1
f 81/5/4 80/1/4 79/10/4
f 80/1/4 82/11/4 79/10/4
f 79/5/5 82/1/5 83/18/5
f 82/1/5 84/19/5 83/18/5
f 83/5/4 84/1/4 85/16/4
f 84/1/4 86/17/4 85/16/4
f 85/5/5 86/1/5 87/6/5
f 86/1/5 88/7/5 87/6/5
f 87/5/4 88/1/4 89/14/4
f 88/1/4 90/15/4 89/14/4
f 89/5/3 90/1/3 91/12/3
f 90/1/3 92/13/3 91/12/3
f 91/5/4 92/1/4 93/16/4
f 92/1/4 94/17/4 93/16/4
f 93/5/5 94/1/5 95/20/5
f 94/1/5 96/21/5 95/20/5
f 95/5/1 96/1/1 97/22/1
f 96/1/1 98/23/1 97/22/1
f 97/5/5 98/1/5 99/12/5
f 98/1/5 100/13/5 99/12/5
f 45/13/4 46/12/4 101/1/4
f 46/12/4 102/5/4 101/1/4
f 101/11/4 102/10/4 103/1/4
f 102/10/4 104/5/4 103/1/4
f 103/13/3 104/12/3 105/1/3
f 104/12/3 106/5/3 105/1/3
f 105/15/4 106/14/4 107/1/4
f 106/14/4 108/5/4 107/1/4
f 107/17/5 108/16/5 109/1/5
f 108/16/5 110/5/5 109/1/5
f 99/5/1 100/1/1 111/8/1
f 100/1/1 112/9/1 111/8/1
f 111/5/1 112/1/1 113/10/1
f 112/1/1 114/11/1 113/10/1
f 117/5/3 116/1/3 115/12/3
f 116/1/3 118/13/3 115/12/3
f 115/5/1 118/1/1 119/16/1
f 118/1/1 120/17/1 119/16/1
f 116/17/4 117/16/4 121/1/4
f 117/16/4 122/5/4 121/1/4
f 121/11/3 122/10/3 114/1/3
f 122/10/3 113/5/3 114/1/3
f 109/11/1 110/10/1 123/1/1
f 110/10/1 124/5/1 123/1/1
f 123/11/5 124/10/5 125/1/5
f 124/10/5 126/5/5 125/1/5
f 125/17/4 126/16/4 127/1/4
f 126/16/4 128/5/4 127/1/4
f 127/13/5 128/12/5 129/1/5
f 128/12/5 130/5/5 129/1/5
f 129/17/1 130/16/1 131/1/1
f 130/16/1 132/5/1 131/1/1
f 131/11/5 132/10/5 133/1/5
f 132/10/5 134/5/5 133/1/5
f 119/5/3 120/1/3 135/10/3
f 120/1/3 136/11/3 135/10/3
f 135/5/3 136/1/3 137/18/3
f 136/1/3 138/19/3 137/18/3
f 137/5/1 138/1/1 139/18/1
f 138/1/1 140/19/1 139/18/1
f 133/9/5 134/8/5 141/1/5
f 134/8/5 142/5/5 141/1/5
f 141/9/4 142/8/4 143/1/4
f 142/8/4 144/5/4 143/1/4
f 139/5/3 140/1/3 145/8/3
f 140/1/3 146/9/3 145/8/3
f 143/17/4 144/16/4 147/1/4
f 144/16/4 148/5/4 147/1/4
f 147/19/5 148/18/5 149/1/5
f 148/18/5 150/5/5 149/1/5
f 77/5/1 78/1/1 151/10/1
f 78/1/1 152/11/1 151/10/1
f 80/11/4 81/10/4 153/1/4
f 81/10/4 154/5/4 153/1/4
f 151/5/1 152/1/1 155/6/1
f 152/1/1 156/7/1 155/6/1
f 153/7/4 154/6/4 157/1/4
f 154/6/4 158/5/4 157/1/4
f 155/5/1 156/1/1 159/10/1
f 156/1/1 160/11/1 159/10/1

