# WaveFront *.obj file (generated by CINEMA 4D)

mtllib ./MAP.mtl

v -3 3 -3
v 0 1 -3
v -3 1 -3
v 0 3 -3
v 0 1 0
v 0 3 0
v -3 1 0
v -3 3 0
v -4 1 -3
v -4 3 -3
v -4 3 0
v -4 1 0
v -4 3 1
v -4 1 1
v -4 1 -4
v -4 3 -4
v -13 3 -3
v -13 1 -4
v -13 1 -3
v -13 3 -4
v -13 3 1
v -13 1 0
v -13 1 1
v -13 3 0
v -12 3 -4
v -12 1 -4
v -12 1 1
v -12 3 1
v -10 1 1
v -10 3 1
v -10 3 -4
v -10 1 -4
v -12 1 2
v -12 3 2
v -10 3 2
v -10 1 2
v -10 1 -5
v -10 3 -5
v -12 3 -5
v -12 1 -5
v -13 1 2
v -13 3 2
v -7 3 2
v -7 1 2
v -6 3 2
v -6 1 2
v -10 4 2
v -7 4 2
v -12 4 2
v -17 3 2
v -17 4 2
v 0 4 2
v 0 3 2
v -17 3 -5
v -17 4 -5
v -17 1 2
v -17 1 -5
v 0 1 -5
v 0 3 -5
v -12 4 -5
v 0 4 -5
v -10 4 -5
v -28 3 -36
v -28 1 -37
v -28 1 -36
v -28 3 -37
v -28 3 -39
v -28 1 -40
v -28 1 -39
v -28 3 -40
v -30 1 -39
v -30 3 -39
v -30 3 -37
v -30 1 -37
v -14 3 0
v -14 1 0
v -14 1 -3
v -14 3 -3
v -16 3 0
v -16 1 0
v -16 1 -3
v -16 3 -3
v -13 1 7
v -12 1 7
v -12 1 8
v -13 1 8
v -10 1 7
v -10 1 8
v -9 1 7
v -9 1 8
v -9 1 11
v -10 1 11
v -7 1 7
v -6 1 7
v -6 1 11
v -7 1 11
v -9 1 12
v -10 1 12
v -6 1 12
v -7 1 12
v -17 1 12
v -17 1 11
v -6 1 16
v -7 1 16
v -6 1 17
v -7 1 17
v -17 1 17
v -17 1 16
v -14 1 -8
v -13 1 -12
v -13 1 -8
v -14 1 -12
v -13 1 -5
v -14 1 -5
v -9 1 -12
v -10 1 -8
v -10 1 -12
v -9 1 -8
v -9 1 -5
v -10 1 -13
v -9 1 -13
v -14 1 -13
v -13 1 -13
v -8 1 -13
v -8 1 -12
v -9 1 -15
v -8 1 -15
v -24 1 -12
v -24 1 -13
v -26 1 -12
v -26 1 -13
v -27 1 -12
v -27 1 -13
v -27 1 -15
v -26 1 -15
v -27 1 -17
v -26 1 -17
v -27 1 -19
v -26 1 -19
v -27 1 -20
v -26 1 -20
v -27 1 -21
v -26 1 -21
v -24 1 -21
v -24 1 -20
v -23 1 -21
v -23 1 -20
v -23 1 -19
v -24 1 -19
v -19 1 -20
v -19 1 -19
v -18 1 -20
v -18 1 -19
v -19 1 -22
v -18 1 -22
v -19 1 -23
v -18 1 -23
v -19 1 -25
v -18 1 -25
v -29 1 -22
v -29 1 -23
v -30 1 -22
v -30 1 -23
v -30 1 -29
v -29 1 -29
v -30 1 -30
v -29 1 -30
v -28 1 -30
v -28 1 -29
v -27 1 -30
v -27 1 -29
v -28 1 -31
v -27 1 -31
v -16 1 -17
v -24 1 -15
v -24 1 -17
v -16 1 -15
v -15 1 -19
v -16 1 -19
v -15 1 -17
v -15 1 -16
v -16 1 -16
v -15 1 -15
v -12 1 -16
v -12 1 -15
v -11 1 -16
v -11 1 -15
v -12 1 -26
v -11 1 -26
v -12 1 -27
v -11 1 -27
v -9 1 -27
v -9 1 -26
v -9 1 -23
v -8 1 -23
v -9 1 -24
v -8 1 -24
v -1 1 -24
v -1 1 -23
v 0 1 -24
v 0 1 -23
v -1 1 -34
v 0 1 -34
v -1 1 -35
v 0 1 -35
v -3 1 -34
v -3 1 -35
v -4 1 -27
v -4 1 -26
v -3 1 -27
v -3 1 -26
v -4 1 -28
v -3 1 -28
v -16 1 -27
v -15 1 -27
v -16 1 -28
v -15 1 -28
v -18 1 -27
v -18 1 -28
v -19 1 -27
v -19 1 -28
v -19 1 -29
v -18 1 -29
v -19 1 -30
v -18 1 -30
v -25 1 -29
v -25 1 -30
v -24 1 -31
v -25 1 -31
v -24 1 -30
v -4 1 -29
v -3 1 -29
v -12 1 -28
v -12 1 -29
v -13 1 -28
v -13 1 -29
v -13 1 -30
v -12 1 -30
v -4 1 -31
v -3 1 -31
v -4 1 -34
v -4 1 -35
v -3 1 -33
v -4 1 -33
v -4 1 -36
v -3 1 -36
v -12 1 -35
v -12 1 -36
v -13 1 -35
v -13 1 -36
v -12 1 -34
v -13 1 -34
v -12 1 -33
v -13 1 -33
v -13 1 -31
v -12 1 -31
v -17 1 -30
v -17 1 -31
v -18 1 -31
v -19 1 -31
v -20 1 -30
v -20 1 -31
v -20 1 -36
v -19 1 -36
v -16 1 -33
v -16 1 -34
v -17 1 -33
v -17 1 -34
v -17 1 -37
v -16 1 -37
v -20 1 -37
v -19 1 -37
v -23 1 -36
v -23 1 -37
v -17 1 -39
v -16 1 -39
v -17 1 -40
v -16 1 -40
v -23 1 -39
v -23 1 -40
v -25 1 -34
v -24 1 -34
v -28 1 -34
v -27 1 -34
v -25 1 -35
v -24 1 -35
v -28 1 -35
v -27 1 -35
v -13 3 7
v -13 3 8
v -12 3 8
v -10 3 8
v -10 3 11
v -6 3 7
v -6 3 11
v -17 3 11
v -6 3 12
v -6 3 16
v -6 3 17
v -7 3 17
v -17 3 17
v -17 3 12
v -17 3 16
v -18 3 16
v -18 1 16
v -18 1 12
v -18 3 12
v -18 3 20
v -18 1 20
v -18 1 5
v -18 3 5
v -32 1 5
v -32 3 5
v -32 3 20
v -32 1 20
v -14 3 -5
v -14 3 -8
v -9 3 -8
v -9 3 -5
v -14 3 -12
v -9 3 -12
v -8 3 -12
v -8 3 -13
v -8 3 -15
v -24 3 -12
v -26 3 -12
v -27 3 -12
v -27 3 -13
v -27 3 -15
v -27 3 -17
v -27 3 -19
v -27 3 -20
v -27 3 -21
v -26 3 -21
v -24 3 -21
v -23 3 -21
v -23 3 -20
v -19 3 -20
v -19 3 -22
v -29 3 -22
v -30 3 -22
v -30 3 -23
v -30 3 -29
v -30 3 -30
v -28 3 -30
v -28 3 -31
v -15 3 -19
v -15 3 -17
v -15 3 -16
v -12 3 -16
v -12 3 -26
v -12 3 -27
v -11 3 -27
v -9 3 -27
v -8 3 -23
v 0 3 -23
v 0 3 -35
v -3 3 -35
v -4 3 -27
v -4 3 -28
v -12 3 -28
v -15 3 -27
v -15 3 -28
v -18 3 -28
v -18 3 -30
v -24 3 -30
v -24 3 -31
v -13 3 -28
v -13 3 -30
v -3 3 -36
v -13 3 -36
v -13 3 -34
v -17 3 -30
v -20 3 -30
v -20 3 -36
v -16 3 -34
v -16 3 -37
v -23 3 -36
v -16 3 -39
v -16 3 -40
v -17 3 -40
v -23 3 -40
v -24 3 -34
v -28 3 -34
v -24 3 -35
v -28 3 -35
v -10 3 0
v -12 3 0
v -10 3 -3
v -12 3 -3
v -10 4 3
v -7 4 3
v -12 4 3
v -17 4 3
v 0 4 3
v -18 4 2
v -18 4 3
v -18 4 -5
v -17 4 -6
v -18 4 -6
v 0 4 -6
v -22 4 -37
v -23 4 -39
v -23 4 -37
v -22 4 -39
v -22 4 -41
v -23 4 -41
v -22 4 -42
v -23 4 -42
v -29 4 -42
v -29 4 -41
v -30 4 -42
v -30 4 -41
v -30 4 -35
v -29 4 -35
v -30 4 -34
v -29 4 -34
v -23 4 -34
v -23 4 -35
v -22 4 -34
v -22 4 -35
v 1 4 3
v 1 4 2
v 1 4 -5
v 1 4 -6
v -17 4.25 3
v -12 4.25 3
v -18 4.25 3
v -18 4.25 -6
v 1 4.25 -6
v 1 4.25 3
v -30 4.25 -34
v -29 4.25 -34
v -22 4.25 -34
v -22 4.25 -42
v -30 4.25 -42
v -25 3 -34
v -25 3 -35
v -27 3 -35
v -27 1 -36
v -27 3 -36
v -29 1 -35
v -29 3 -35
v -29 1 -41
v -29 3 -41
v -23 1 -41
v -23 3 -41
v -23 3 -39
v -24 1 -39
v -24 3 -39
v -24 1 -40
v -24 3 -40
v -25 3 -36
v -25 1 -36
v -24 1 -36
v -24 3 -36
v -24 1 -37
v -24 3 -37
v -23 3 -37
v -23 1 -35
v -23 3 -35
v -25 3 -39
v -25 3 -37
v -27 3 -39
v -27 3 -37
v -25 3 -40
v -27 3 -40
# 467 vertices

vn 0 0 1
vn 0 0 0
vn -1 0 0
vn 0 0 -1
vn 1 0 0
vn 0 1 0
vn 0 -1 0
# 7 normals

vt 0 2 0
vt 3 0 0
vt 0 0 0
vt 0 1 0
vt 3 2 0
vt 1 2 0
vt 1 0 0
vt 6 0 0
vt 6 2 0
vt 3 1 0
vt 2 1 0
vt 2 0 0
vt 5 1 0
vt 5 0 0
vt 7 1 0
vt 7 0 0
vt 7 2 0
vt 5 2 0
vt 10 2 0
vt 10 0 0
vt 10 1 0
vt 4 2 0
vt 4 0 0
vt -0.5 2 0
vt 0.5 0 0
vt -0.5 0 0
vt 0.5 2 0
vt 2 2 0
vt 1 5 0
vt 0 5 0
vt 1 1 0
vt 0 3 0
vt 1 3 0
vt 0 4 0
vt 1 4 0
vt 4 1 0
vt 0 6 0
vt 1 6 0
vt 8 2 0
vt 8 0 0
vt 0 10 0
vt 1 10 0
vt 0 8 0
vt 1 8 0
vt 6 1 0
vt 8 1 0
vt 14 2 0
vt 14 0 0
vt 15 2 0
vt 15 0 0
vt 12 2 0
vt 12 0 0
vt 2 3 0
vt 6 3 0
vt 4 3 0
vt 3 3 0
vt -0.7568359375 0.7998046875 0
vt 0.65673828125 0.7998046875 0
vt -0.04998779296875 0.09283447265625 0
vt -0.04998779296875 1.5068359375 0
vt -3 2 0
vt 4 2.998046875 0
vt 4 1.9990234375 0
vt -3 3 0
vt -0.204345703125 0.84130859375 0
vt 1.2041015625 0.71826171875 0
vt 0.438232421875 0.0755615234375 0
vt 0.5615234375 1.484375 0
vt 0 0.00000071525574 0
vt 17 0.99951171875 0
vt 17 -0.00000071525574 0
vt -0.5 1 0
vt 1.5 0 0
vt 1.5 1 0
vt 0.499755859375 1.5068359375 0
vt 0.5 0.09283447265625 0
vt -0.20703125 0.7998046875 0
vt 1.20703125 0.7998046875 0
vt 6 0.99951171875 0
vt 0 0.00000023841858 0
vt 6 -0.00000023841858 0
vt 0.5 1.486328125 0
vt 0.5 0.0728759765625 0
vt -0.20703125 0.77978515625 0
vt 1.20703125 0.77978515625 0
vt 3.5 3 0
vt -2.5 2 0
vt -2.5 3 0
vt 3.5 2 0
vt 0.499755859375 1.486328125 0
vt 0 0.25 0
vt 5 0.25 0
vt 1 0.25 0
vt 9 0.25 0
vt 9 0 0
vt 19 0.25 0
vt 19 0 0
vt 13 0.25 0
vt 13 0 0
vt 7 0.25 0
vt 8 0.25 0
# 101 texture coordinates

o MAP
usemtl TEXTURE_GRAVEYARD_wall
f 3/3/1 2/2/1 1/1/1
f 2/2/1 4/5/1 1/1/1
f 2/3/3 5/2/3 4/1/3
f 5/2/3 6/5/3 4/1/3
f 5/3/4 7/2/4 6/1/4
f 7/2/4 8/5/4 6/1/4
f 3/7/1 1/6/1 9/3/1
f 1/6/1 10/1/1 9/3/1
f 8/1/4 7/3/4 11/6/4
f 7/3/4 12/7/4 11/6/4
f 11/1/3 12/3/3 13/6/3
f 12/3/3 14/7/3 13/6/3
f 9/7/3 10/6/3 15/3/3
f 10/6/3 16/1/3 15/3/3
f 19/3/5 18/7/5 17/1/5
f 18/7/5 20/6/5 17/1/5
f 23/3/5 22/7/5 21/1/5
f 22/7/5 24/6/5 21/1/5
f 20/1/1 18/3/1 25/6/1
f 18/3/1 26/7/1 25/6/1
f 23/7/4 21/6/4 27/3/4
f 21/6/4 28/1/4 27/3/4
f 14/3/4 29/8/4 13/1/4
f 29/8/4 30/9/4 13/1/4
f 32/3/1 15/8/1 31/1/1
f 15/8/1 16/9/1 31/1/1
f 27/7/5 28/6/5 33/3/5
f 28/6/5 34/1/5 33/3/5
f 30/1/3 29/3/3 35/6/3
f 29/3/3 36/7/3 35/6/3
f 32/7/3 31/6/3 37/3/3
f 31/6/3 38/1/3 37/3/3
f 25/1/5 26/3/5 39/6/5
f 26/3/5 40/7/5 39/6/5
f 42/1/1 41/3/1 34/6/1
f 41/3/1 33/7/1 34/6/1
f 35/1/1 36/3/1 43/5/1
f 36/3/1 44/2/1 43/5/1
f 46/7/1 45/6/1 44/3/1
f 45/6/1 43/1/1 44/3/1
f 35/3/1 43/2/1 47/4/1
f 43/2/1 48/10/1 47/4/1
f 35/12/1 47/11/1 34/3/1
f 47/11/1 49/4/1 34/3/1
f 34/14/1 49/13/1 50/3/1
f 49/13/1 51/4/1 50/3/1
f 48/4/1 43/3/1 52/15/1
f 43/3/1 53/16/1 52/15/1
f 50/16/3 51/15/3 54/3/3
f 51/15/3 55/4/3 54/3/3
f 50/17/3 54/1/3 56/16/3
f 54/1/3 57/3/3 56/16/3
f 39/1/4 40/3/4 54/18/4
f 40/3/4 57/14/4 54/18/4
f 37/20/4 38/19/4 58/3/4
f 38/19/4 59/1/4 58/3/4
f 39/3/4 54/14/4 60/4/4
f 54/14/4 55/13/4 60/4/4
f 59/3/4 38/20/4 61/4/4
f 38/20/4 62/21/4 61/4/4
f 62/4/4 38/3/4 60/11/4
f 38/3/4 39/12/4 60/11/4
f 50/1/1 56/3/1 42/22/1
f 56/3/1 41/23/1 42/22/1
f 65/26/5 64/25/5 63/24/5
f 64/25/5 66/27/5 63/24/5
f 69/26/5 68/25/5 67/24/5
f 68/25/5 70/27/5 67/24/5
f 69/12/1 67/28/1 71/3/1
f 67/28/1 72/1/1 71/3/1
f 66/1/4 64/3/4 73/28/4
f 64/3/4 74/12/4 73/28/4

usemtl MATERIAL_SECRET_WALL_1
f 24/1/4 22/3/4 75/6/4
f 22/3/4 76/7/4 75/6/4
f 19/7/1 17/6/1 77/3/1
f 17/6/1 78/1/1 77/3/1
f 75/1/4 76/3/4 79/28/4
f 76/3/4 80/12/4 79/28/4
f 77/12/1 78/28/1 81/3/1
f 78/28/1 82/1/1 81/3/1
f 81/2/5 82/5/5 80/3/5
f 82/5/5 79/1/5 80/3/5

usemtl TEXTURE_GRAVEYARD_floor_2
f 84/30/6 33/3/6 83/29/6
f 33/3/6 41/7/6 83/29/6
f 84/3/6 83/7/6 85/4/6
f 83/7/6 86/31/6 85/4/6
f 84/12/6 85/11/6 87/3/6
f 85/11/6 88/4/6 87/3/6
f 87/7/6 88/31/6 89/3/6
f 88/31/6 90/4/6 89/3/6
f 90/3/6 88/7/6 91/32/6
f 88/7/6 92/33/6 91/32/6
f 44/7/6 93/29/6 46/3/6
f 93/29/6 94/30/6 46/3/6
f 94/3/6 93/7/6 95/34/6
f 93/7/6 96/35/6 95/34/6
f 91/3/6 92/7/6 97/4/6
f 92/7/6 98/31/6 97/4/6
f 95/3/6 96/7/6 99/4/6
f 96/7/6 100/31/6 99/4/6
f 98/4/6 92/3/6 101/15/6
f 92/3/6 102/16/6 101/15/6
f 99/3/6 100/7/6 103/34/6
f 100/7/6 104/35/6 103/34/6
f 103/3/6 104/7/6 105/4/6
f 104/7/6 106/31/6 105/4/6
f 106/4/6 104/3/6 107/21/6
f 104/3/6 108/20/6 107/21/6
f 111/34/6 110/3/6 109/35/6
f 110/3/6 112/7/6 109/35/6
f 111/3/6 109/7/6 113/32/6
f 109/7/6 114/33/6 113/32/6
f 117/7/6 116/35/6 115/3/6
f 116/35/6 118/34/6 115/3/6
f 118/3/6 116/7/6 119/32/6
f 116/7/6 37/33/6 119/32/6
f 117/31/6 115/4/6 120/7/6
f 115/4/6 121/3/6 120/7/6
f 112/31/6 110/4/6 122/7/6
f 110/4/6 123/3/6 122/7/6
f 121/7/6 115/31/6 124/3/6
f 115/31/6 125/4/6 124/3/6
f 121/6/6 124/1/6 126/7/6
f 124/1/6 127/3/6 126/7/6
f 112/4/6 122/3/6 128/21/6
f 122/3/6 129/20/6 128/21/6
f 128/4/6 129/3/6 130/11/6
f 129/3/6 131/12/6 130/11/6
f 130/4/6 131/3/6 132/31/6
f 131/3/6 133/7/6 132/31/6
f 133/6/6 131/1/6 134/7/6
f 131/1/6 135/3/6 134/7/6
f 134/6/6 135/1/6 136/7/6
f 135/1/6 137/3/6 136/7/6
f 136/6/6 137/1/6 138/7/6
f 137/1/6 139/3/6 138/7/6
f 138/31/6 139/4/6 140/7/6
f 139/4/6 141/3/6 140/7/6
f 140/31/6 141/4/6 142/7/6
f 141/4/6 143/3/6 142/7/6
f 143/12/6 141/11/6 144/3/6
f 141/11/6 145/4/6 144/3/6
f 144/7/6 145/31/6 146/3/6
f 145/31/6 147/4/6 146/3/6
f 147/3/6 145/7/6 148/4/6
f 145/7/6 149/31/6 148/4/6
f 147/23/6 148/36/6 150/3/6
f 148/36/6 151/4/6 150/3/6
f 150/7/6 151/31/6 152/3/6
f 151/31/6 153/4/6 152/3/6
f 150/6/6 152/1/6 154/7/6
f 152/1/6 155/3/6 154/7/6
f 154/31/6 155/4/6 156/7/6
f 155/4/6 157/3/6 156/7/6
f 156/6/6 157/1/6 158/7/6
f 157/1/6 159/3/6 158/7/6
f 154/4/6 156/3/6 160/21/6
f 156/3/6 161/20/6 160/21/6
f 160/4/6 161/3/6 162/31/6
f 161/3/6 163/7/6 162/31/6
f 163/38/6 161/37/6 164/7/6
f 161/37/6 165/3/6 164/7/6
f 164/31/6 165/4/6 166/7/6
f 165/4/6 167/3/6 166/7/6
f 167/7/6 165/31/6 168/3/6
f 165/31/6 169/4/6 168/3/6
f 168/7/6 169/31/6 170/3/6
f 169/31/6 171/4/6 170/3/6
f 168/31/6 170/4/6 172/7/6
f 170/4/6 173/3/6 172/7/6
f 176/40/6 175/39/6 174/3/6
f 175/39/6 177/1/6 174/3/6
f 179/7/6 174/6/6 178/3/6
f 174/6/6 180/1/6 178/3/6
f 180/3/6 174/7/6 181/4/6
f 174/7/6 182/31/6 181/4/6
f 181/3/6 182/7/6 183/4/6
f 182/7/6 177/31/6 183/4/6
f 181/2/6 183/10/6 184/3/6
f 183/10/6 185/4/6 184/3/6
f 184/7/6 185/31/6 186/3/6
f 185/31/6 187/4/6 186/3/6
f 184/42/6 186/41/6 188/7/6
f 186/41/6 189/3/6 188/7/6
f 188/31/6 189/4/6 190/7/6
f 189/4/6 191/3/6 190/7/6
f 191/12/6 189/11/6 192/3/6
f 189/11/6 193/4/6 192/3/6
f 126/44/6 127/43/6 194/7/6
f 127/43/6 195/3/6 194/7/6
f 194/31/6 195/4/6 196/7/6
f 195/4/6 197/3/6 196/7/6
f 197/16/6 195/15/6 198/3/6
f 195/15/6 199/4/6 198/3/6
f 198/7/6 199/31/6 200/3/6
f 199/31/6 201/4/6 200/3/6
f 198/42/6 200/41/6 202/7/6
f 200/41/6 203/3/6 202/7/6
f 202/31/6 203/4/6 204/7/6
f 203/4/6 205/3/6 204/7/6
f 202/4/6 204/3/6 206/11/6
f 204/3/6 207/12/6 206/11/6
f 192/14/6 193/13/6 208/3/6
f 193/13/6 209/4/6 208/3/6
f 208/7/6 209/31/6 210/3/6
f 209/31/6 211/4/6 210/3/6
f 208/31/6 210/4/6 212/7/6
f 210/4/6 213/3/6 212/7/6
f 179/44/6 178/43/6 214/7/6
f 178/43/6 215/3/6 214/7/6
f 214/31/6 215/4/6 216/7/6
f 215/4/6 217/3/6 216/7/6
f 214/4/6 216/3/6 218/11/6
f 216/3/6 219/12/6 218/11/6
f 218/4/6 219/3/6 220/31/6
f 219/3/6 221/7/6 220/31/6
f 221/31/6 219/4/6 222/7/6
f 219/4/6 223/3/6 222/7/6
f 222/31/6 223/4/6 224/7/6
f 223/4/6 225/3/6 224/7/6
f 222/4/6 224/3/6 226/45/6
f 224/3/6 227/8/6 226/45/6
f 229/7/6 227/31/6 228/3/6
f 227/31/6 230/4/6 228/3/6
f 212/31/6 213/4/6 231/7/6
f 213/4/6 232/3/6 231/7/6
f 212/4/6 231/3/6 233/46/6
f 231/3/6 234/40/6 233/46/6
f 233/4/6 234/3/6 235/31/6
f 234/3/6 236/7/6 235/31/6
f 236/31/6 234/4/6 237/7/6
f 234/4/6 238/3/6 237/7/6
f 231/6/6 232/1/6 239/7/6
f 232/1/6 240/3/6 239/7/6
f 206/4/6 207/3/6 241/31/6
f 207/3/6 242/7/6 241/31/6
f 206/3/6 241/7/6 243/4/6
f 241/7/6 244/31/6 243/4/6
f 242/31/6 207/4/6 245/7/6
f 207/4/6 246/3/6 245/7/6
f 242/4/6 245/3/6 247/46/6
f 245/3/6 248/40/6 247/46/6
f 247/4/6 248/3/6 249/31/6
f 248/3/6 250/7/6 249/31/6
f 247/3/6 249/7/6 251/4/6
f 249/7/6 252/31/6 251/4/6
f 251/3/6 252/7/6 253/4/6
f 252/7/6 254/31/6 253/4/6
f 237/31/6 238/4/6 255/7/6
f 238/4/6 256/3/6 255/7/6
f 237/4/6 255/3/6 257/36/6
f 255/3/6 258/23/6 257/36/6
f 257/4/6 258/3/6 225/31/6
f 258/3/6 259/7/6 225/31/6
f 225/4/6 259/3/6 224/31/6
f 259/3/6 260/7/6 224/31/6
f 224/4/6 260/3/6 261/31/6
f 260/3/6 262/7/6 261/31/6
f 262/29/6 260/30/6 263/7/6
f 260/30/6 264/3/6 263/7/6
f 254/4/6 252/3/6 265/10/6
f 252/3/6 266/2/6 265/10/6
f 265/4/6 266/3/6 267/31/6
f 266/3/6 268/7/6 267/31/6
f 268/33/6 266/32/6 269/7/6
f 266/32/6 270/3/6 269/7/6
f 263/31/6 264/4/6 271/7/6
f 264/4/6 272/3/6 271/7/6
f 263/4/6 271/3/6 273/10/6
f 271/3/6 274/2/6 273/10/6
f 269/6/6 270/1/6 275/7/6
f 270/1/6 276/3/6 275/7/6
f 275/31/6 276/4/6 277/7/6
f 276/4/6 278/3/6 277/7/6
f 275/4/6 277/3/6 279/45/6
f 277/3/6 280/8/6 279/45/6
f 229/33/6 228/32/6 281/7/6
f 228/32/6 282/3/6 281/7/6
f 172/33/6 173/32/6 283/7/6
f 173/32/6 284/3/6 283/7/6
f 281/31/6 282/4/6 285/7/6
f 282/4/6 286/3/6 285/7/6
f 283/31/6 284/4/6 287/7/6
f 284/4/6 288/3/6 287/7/6

usemtl TEXTURE_GRAVEYARD_shrubbery
f 83/3/5 41/14/5 289/1/5
f 41/14/5 42/18/5 289/1/5
f 83/7/5 289/6/5 86/3/5
f 289/6/5 290/1/5 86/3/5
f 86/7/4 290/6/4 85/3/4
f 290/6/4 291/1/4 85/3/4
f 85/12/4 291/28/4 88/3/4
f 291/28/4 292/1/4 88/3/4
f 88/2/5 292/5/5 92/3/5
f 292/5/5 293/1/5 92/3/5
f 46/3/3 94/14/3 45/1/3
f 94/14/3 294/18/3 45/1/3
f 294/1/3 94/3/3 295/22/3
f 94/3/3 95/23/3 295/22/3
f 92/16/1 293/17/1 102/3/1
f 293/17/1 296/1/1 102/3/1
f 295/1/3 95/3/3 297/6/3
f 95/3/3 99/7/3 297/6/3
f 297/1/3 99/3/3 298/22/3
f 99/3/3 103/23/3 298/22/3
f 298/1/3 103/3/3 299/6/3
f 103/3/3 105/7/3 299/6/3
f 299/1/4 105/3/4 300/6/4
f 105/3/4 106/7/4 300/6/4
f 300/1/4 106/3/4 301/19/4
f 106/3/4 107/20/4 301/19/4
f 102/7/5 296/6/5 101/3/5
f 296/6/5 302/1/5 101/3/5
f 101/4/2 302/3/2 101/3/2
f 302/4/2 302/3/2 101/3/2
f 301/1/5 107/3/5 303/6/5
f 107/3/5 108/7/5 303/6/5
f 303/4/2 108/3/2 303/3/2
f 108/4/2 108/3/2 303/3/2
f 303/1/4 108/3/4 304/6/4
f 108/3/4 305/7/4 304/6/4
f 101/7/1 302/6/1 306/3/1
f 302/6/1 307/1/1 306/3/1
f 304/1/3 305/3/3 308/22/3
f 305/3/3 309/23/3 308/22/3
f 306/16/3 307/17/3 310/3/3
f 307/17/3 311/1/3 310/3/3
f 310/48/1 311/47/1 312/3/1
f 311/47/1 313/1/1 312/3/1
f 308/1/4 309/3/4 314/47/4
f 309/3/4 315/48/4 314/47/4
f 314/1/5 315/3/5 313/49/5
f 315/3/5 312/50/5 313/49/5
f 114/3/5 109/2/5 316/1/5
f 109/2/5 317/5/5 316/1/5
f 118/3/3 119/2/3 318/1/3
f 119/2/3 319/5/3 318/1/3
f 317/1/5 109/3/5 320/22/5
f 109/3/5 112/23/5 320/22/5
f 118/23/3 318/22/3 115/3/3
f 318/22/3 321/1/3 115/3/3
f 115/7/4 321/6/4 125/3/4
f 321/6/4 322/1/4 125/3/4
f 125/7/3 322/6/3 124/3/3
f 322/6/3 323/1/3 124/3/3
f 124/12/3 323/28/3 127/3/3
f 323/28/3 324/1/3 127/3/3
f 320/1/4 112/3/4 325/19/4
f 112/3/4 128/20/4 325/19/4
f 325/1/4 128/3/4 326/28/4
f 128/3/4 130/12/4 326/28/4
f 326/1/4 130/3/4 327/6/4
f 130/3/4 132/7/4 327/6/4
f 327/1/5 132/3/5 328/6/5
f 132/3/5 133/7/5 328/6/5
f 328/1/5 133/3/5 329/28/5
f 133/3/5 134/12/5 329/28/5
f 329/1/5 134/3/5 330/28/5
f 134/3/5 136/12/5 330/28/5
f 330/1/5 136/3/5 331/28/5
f 136/3/5 138/12/5 331/28/5
f 331/1/5 138/3/5 332/6/5
f 138/3/5 140/7/5 332/6/5
f 332/1/5 140/3/5 333/6/5
f 140/3/5 142/7/5 333/6/5
f 333/1/1 142/3/1 334/6/1
f 142/3/1 143/7/1 334/6/1
f 334/1/1 143/3/1 335/28/1
f 143/3/1 144/12/1 335/28/1
f 335/1/1 144/3/1 336/6/1
f 144/3/1 146/7/1 336/6/1
f 336/1/3 146/3/3 337/6/3
f 146/3/3 147/7/3 337/6/3
f 337/1/1 147/3/1 338/22/1
f 147/3/1 150/23/1 338/22/1
f 338/1/5 150/3/5 339/28/5
f 150/3/5 154/12/5 339/28/5
f 339/1/4 154/3/4 340/19/4
f 154/3/4 160/20/4 340/19/4
f 340/1/4 160/3/4 341/6/4
f 160/3/4 162/7/4 341/6/4
f 341/1/5 162/3/5 342/6/5
f 162/3/5 163/7/5 342/6/5
f 342/1/5 163/3/5 343/9/5
f 163/3/5 164/8/5 343/9/5
f 343/1/5 164/3/5 344/6/5
f 164/3/5 166/7/5 344/6/5
f 344/1/1 166/3/1 345/28/1
f 166/3/1 168/12/1 345/28/1
f 345/1/5 168/3/5 346/6/5
f 168/3/5 172/7/5 346/6/5
f 178/3/3 180/12/3 347/1/3
f 180/12/3 348/28/3 347/1/3
f 348/1/3 180/3/3 349/6/3
f 180/3/3 181/7/3 349/6/3
f 349/1/1 181/3/1 350/5/1
f 181/3/1 184/2/1 350/5/1
f 350/1/5 184/3/5 351/19/5
f 184/3/5 188/20/5 351/19/5
f 351/1/5 188/3/5 352/6/5
f 188/3/5 190/7/5 352/6/5
f 352/1/1 190/3/1 353/6/1
f 190/3/1 191/7/1 353/6/1
f 353/1/1 191/3/1 354/28/1
f 191/3/1 192/12/1 354/28/1
f 127/40/3 324/39/3 195/3/3
f 324/39/3 355/1/3 195/3/3
f 195/40/4 355/39/4 201/3/4
f 355/39/4 356/1/4 201/3/4
f 201/52/3 356/51/3 205/3/3
f 356/51/3 357/1/3 205/3/3
f 205/2/1 357/5/1 207/3/1
f 357/5/1 358/1/1 207/3/1
f 354/1/1 192/3/1 359/18/1
f 192/3/1 208/14/1 359/18/1
f 359/1/5 208/3/5 360/6/5
f 208/3/5 212/7/5 360/6/5
f 360/1/4 212/3/4 361/39/4
f 212/3/4 233/40/4 361/39/4
f 178/40/3 347/39/3 215/3/3
f 347/39/3 362/1/3 215/3/3
f 215/7/3 362/6/3 217/3/3
f 362/6/3 363/1/3 217/3/3
f 217/2/1 363/5/1 219/3/1
f 363/5/1 364/1/1 219/3/1
f 219/12/3 364/28/3 225/3/3
f 364/28/3 365/1/3 225/3/3
f 225/8/1 365/9/1 230/3/1
f 365/9/1 366/1/1 230/3/1
f 230/7/3 366/6/3 228/3/3
f 366/6/3 367/1/3 228/3/3
f 361/1/4 233/3/4 368/6/4
f 233/3/4 235/7/4 368/6/4
f 368/1/5 235/3/5 369/28/5
f 235/3/5 237/12/5 369/28/5
f 207/7/3 358/6/3 246/3/3
f 358/6/3 370/1/3 246/3/3
f 246/20/1 370/19/1 250/3/1
f 370/19/1 371/1/1 250/3/1
f 250/12/5 371/28/5 252/3/5
f 371/28/5 372/1/5 252/3/5
f 369/1/4 237/3/4 373/22/4
f 237/3/4 257/23/4 373/22/4
f 373/1/4 257/3/4 365/6/4
f 257/3/4 225/7/4 365/6/4
f 365/1/4 225/3/4 374/28/4
f 225/3/4 261/12/4 374/28/4
f 374/1/5 261/3/5 375/9/5
f 261/3/5 263/8/5 375/9/5
f 252/2/1 372/5/1 266/3/1
f 372/5/1 376/1/1 266/3/1
f 266/2/3 376/5/3 270/3/3
f 376/5/3 377/1/3 270/3/3
f 375/1/4 263/3/4 378/5/4
f 263/3/4 273/2/4 378/5/4
f 270/12/3 377/28/3 276/3/3
f 377/28/3 379/1/3 276/3/3
f 276/7/3 379/6/3 278/3/3
f 379/6/3 380/1/3 278/3/3
f 278/7/1 380/6/1 277/3/1
f 380/6/1 381/1/1 277/3/1
f 277/8/1 381/9/1 280/3/1
f 381/9/1 382/1/1 280/3/1
f 228/2/3 367/5/3 282/3/3
f 367/5/3 383/1/3 282/3/3
f 346/1/5 172/3/5 384/5/5
f 172/3/5 283/2/5 384/5/5
f 282/7/3 383/6/3 286/3/3
f 383/6/3 385/1/3 286/3/3
f 384/1/5 283/3/5 386/6/5
f 283/3/5 287/7/5 386/6/5

usemtl MATERIAL_CASTLE_CEILING_1
f 34/4/7 28/3/7 35/11/7
f 28/3/7 30/12/7 35/11/7
f 30/11/7 28/4/7 387/12/7
f 28/4/7 388/3/7 387/12/7
f 387/53/7 388/32/7 389/12/7
f 388/32/7 390/3/7 389/12/7
f 389/11/7 390/4/7 31/12/7
f 390/4/7 25/3/7 31/12/7
f 31/11/7 25/4/7 38/12/7
f 25/4/7 39/3/7 38/12/7
f 387/32/7 389/3/7 11/54/7
f 389/3/7 10/8/7 11/54/7
f 389/4/7 31/3/7 10/45/7
f 31/3/7 16/8/7 10/45/7
f 30/4/7 387/3/7 13/45/7
f 387/3/7 11/8/7 13/45/7
f 11/32/7 10/3/7 6/55/7
f 10/3/7 4/23/7 6/55/7
f 390/7/7 388/33/7 17/3/7
f 388/33/7 24/32/7 17/3/7
f 388/7/7 28/31/7 24/3/7
f 28/31/7 21/4/7 24/3/7
f 25/7/7 390/31/7 20/3/7
f 390/31/7 17/4/7 20/3/7

usemtl MATERIAL_SECRET_CEILING_1
f 17/2/7 24/56/7 82/3/7
f 24/56/7 79/32/7 82/3/7

usemtl TEXTURE_GRAVEYARD_wall_upper
f 47/3/7 48/2/7 391/4/7
f 48/2/7 392/10/7 391/4/7
f 49/3/7 47/12/7 393/4/7
f 47/12/7 391/11/7 393/4/7
f 51/3/7 49/14/7 394/4/7
f 49/14/7 393/13/7 394/4/7
f 48/3/7 52/16/7 392/4/7
f 52/16/7 395/15/7 392/4/7
f 51/59/7 394/58/7 396/57/7
f 394/58/7 397/60/7 396/57/7
f 51/63/7 396/62/7 55/61/7
f 396/62/7 398/64/7 55/61/7
f 55/67/7 398/66/7 399/65/7
f 398/66/7 400/68/7 399/65/7
f 55/71/7 399/70/7 61/69/7
f 399/70/7 401/4/7 61/69/7
f 404/26/7 403/73/7 402/72/7
f 403/73/7 405/74/7 402/72/7
f 405/72/7 403/26/7 406/74/7
f 403/26/7 407/73/7 406/74/7
f 406/77/7 407/76/7 408/75/7
f 407/76/7 409/78/7 408/75/7
f 409/4/7 407/80/7 410/79/7
f 407/80/7 411/81/7 410/79/7
f 410/84/7 411/83/7 412/82/7
f 411/83/7 413/85/7 412/82/7
f 413/88/7 411/87/7 414/86/7
f 411/87/7 415/89/7 414/86/7
f 414/84/7 415/83/7 416/82/7
f 415/83/7 417/85/7 416/82/7
f 417/4/7 415/3/7 418/45/7
f 415/3/7 419/8/7 418/45/7
f 418/84/7 419/83/7 420/90/7
f 419/83/7 421/85/7 420/90/7
f 421/72/7 419/26/7 402/74/7
f 419/26/7 404/73/7 402/74/7
f 395/84/7 52/83/7 422/90/7
f 52/83/7 423/85/7 422/90/7
f 61/76/7 401/78/7 424/77/7
f 401/78/7 425/75/7 424/77/7
f 61/22/7 424/55/7 52/61/7
f 424/55/7 423/64/7 52/61/7
f 394/3/1 393/14/1 426/91/1
f 393/14/1 427/92/1 426/91/1
f 394/7/1 426/93/1 397/3/1
f 426/93/1 428/91/1 397/3/1
f 397/95/3 428/94/3 400/3/3
f 428/94/3 429/91/3 400/3/3
f 400/97/4 429/96/4 425/3/4
f 429/96/4 430/91/4 425/3/4
f 425/95/5 430/94/5 422/3/5
f 430/94/5 431/91/5 422/3/5
f 422/99/1 431/98/1 393/3/1
f 431/98/1 427/91/1 393/3/1
f 416/3/1 417/7/1 432/91/1
f 417/7/1 433/93/1 432/91/1
f 433/91/1 417/3/1 434/100/1
f 417/3/1 420/16/1 434/100/1
f 434/91/5 420/3/5 435/101/5
f 420/3/5 408/40/5 435/101/5
f 435/91/4 408/3/4 436/101/4
f 408/3/4 412/40/4 436/101/4
f 436/91/3 412/3/3 432/101/3
f 412/3/3 416/40/3 432/101/3

usemtl TEXTURE_GRAVEYARD_EXIT
f 74/3/5 71/12/5 73/1/5
f 71/12/5 72/28/5 73/1/5

usemtl TEXTURE_GRAVEYARD_fence
f 281/7/3 437/6/3 285/3/3
f 437/6/3 438/1/3 285/3/3

usemtl MATERIAL_GRAVEYARD_WALL_1
f 288/3/5 440/7/5 439/1/5
f 440/7/5 441/6/5 439/1/5
f 288/12/1 439/28/1 442/3/1
f 439/28/1 443/1/1 442/3/1
f 442/8/3 443/9/3 444/3/3
f 443/9/3 445/1/3 444/3/3
f 444/8/4 445/9/4 446/3/4
f 445/9/4 447/1/4 446/3/4
f 446/12/5 447/28/5 279/3/5
f 447/28/5 448/1/5 279/3/5
f 279/7/1 448/6/1 449/3/1
f 448/6/1 450/1/1 449/3/1
f 449/7/3 450/6/3 451/3/3
f 450/6/3 452/1/3 451/3/3
f 451/23/1 452/22/1 68/3/1
f 452/22/1 70/1/1 68/3/1
f 65/7/4 63/6/4 440/3/4
f 63/6/4 441/1/4 440/3/4
f 454/3/3 285/7/3 453/1/3
f 285/7/3 438/6/3 453/1/3
f 454/7/4 453/6/4 455/3/4
f 453/6/4 456/1/4 455/3/4
f 455/7/3 456/6/3 457/3/3
f 456/6/3 458/1/3 457/3/3
f 457/7/4 458/6/4 274/3/4
f 458/6/4 459/1/4 274/3/4
f 274/12/5 459/28/5 460/3/5
f 459/28/5 461/1/5 460/3/5
f 460/12/1 461/28/1 285/3/1
f 461/28/1 438/1/1 285/3/1
f 448/3/5 447/12/5 403/4/5
f 447/12/5 407/11/5 403/4/5
f 448/12/5 403/11/5 459/3/5
f 403/11/5 404/4/5 459/3/5
f 459/12/5 404/11/5 461/3/5
f 404/11/5 419/4/5 461/3/5
f 461/8/1 419/45/1 443/3/1
f 419/45/1 415/4/1 443/3/1
f 443/8/3 415/45/3 445/3/3
f 415/45/3 411/4/3 445/3/3
f 445/8/4 411/45/4 447/3/4
f 411/45/4 407/4/4 447/3/4

usemtl TEXTURE_GRAVEYARD_CEILING_2
f 459/6/7 458/1/7 448/7/7
f 458/1/7 450/3/7 448/7/7
f 450/7/7 458/6/7 462/3/7
f 458/6/7 463/1/7 462/3/7
f 462/12/7 463/28/7 464/3/7
f 463/28/7 465/1/7 464/3/7
f 464/7/7 465/6/7 67/3/7
f 465/6/7 66/1/7 67/3/7
f 450/31/7 462/4/7 452/7/7
f 462/4/7 466/3/7 452/7/7
f 462/11/7 464/4/7 466/12/7
f 464/4/7 467/3/7 466/12/7
f 464/31/7 67/4/7 467/7/7
f 67/4/7 70/3/7 467/7/7
f 465/3/7 463/12/7 441/4/7
f 463/12/7 453/11/7 441/4/7
f 66/3/7 465/7/7 63/4/7
f 465/7/7 441/31/7 63/4/7
f 463/3/7 458/7/7 453/4/7
f 458/7/7 456/31/7 453/4/7
f 441/3/7 453/12/7 439/4/7
f 453/12/7 438/11/7 439/4/7
f 67/12/7 66/28/7 72/3/7
f 66/28/7 73/1/7 72/3/7

