# WaveFront *.obj file (generated by CINEMA 4D)

mtllib ./Cube-detach.mtl

v 22 1 -29
v 22 1 -5
v -7.99999904632568 1 -29
v -7.99999809265137 1 -5
v 22 1 -3
v -7.99999809265137 1 -3
v 22 1 19.5
v -7.99999809265137 1 19.5
v 24 1 -5
v 24 1 -3
v 34 1 -5
v 34 1 -3
v 24 1 -14
v 34 1 -14
v 34 1 6
v 24 1 6
v 36 1 -5
v 36 1 -3
v 46.00068283081055 1 -4.99978590011597
v 46 1 -3
v 46 1 6
v 36 1 6
v 36 1 -14
v 46 1 -14
v 36 8 -14
v 36 8 -5
v 48 1 -5
v 48 1 -3
v 66 1 -5
v 66 1 -3
v 48 1 -14
v 66 1 -14
v 66 1 6
v 48 1 6
# 34 vertices

vn 0 1 0
vn 0 0 0
vn 1 0 0
# 3 normals

vt 0 0 0
vt 0 24 0
vt 30 0 0
vt 0 1 0
vt 30 24 0
vt 0 26 0
vt 30 26 0
vt 0 48.5 0
vt 30 48.5 0
vt 2 2 0
vt 2 0 0
vt 0 2 0
vt 10 2 0
vt 10 0 0
vt 0 9 0
vt 10 9 0
vt 0.00000381469727 0.00021409988403 0
vt 10.00068664550781 2 0
vt 10.00068664550781 0 0
vt 0.00068664550781 2 0
vt 0.00000381469727 9.00021362304688 0
vt 10.00068664550781 9 0
vt 0.00068664550781 0 0
vt 9 7 0
vt 0 7 0
vt 9 0 0
vt 1.99931716918945 0.00021409988403 0
vt 18 2 0
vt 18 0 0
vt 18 9 0
# 30 texture coordinates

o Cube-detach
usemtl MATERIAL_CASTLE_FLOOR_1
f 3/3/1 2/2/1 1/1/1
f 2/2/1 3/3/1 4/5/1
f 4/5/1 5/6/1 2/2/1
f 5/6/1 4/5/1 6/7/1
f 6/7/1 7/8/1 5/6/1
f 7/8/1 6/7/1 8/9/1

usemtl MATERIAL_DUNGEON_FLOOR_1
f 2/11/1 5/10/1 9/1/1
f 5/10/1 10/12/1 9/1/1
f 9/14/1 10/13/1 11/1/1
f 10/13/1 12/12/1 11/1/1
f 9/16/1 11/15/1 13/14/1
f 11/15/1 14/1/1 13/14/1
f 12/1/1 10/14/1 15/15/1
f 10/14/1 16/16/1 15/15/1
f 11/11/1 12/10/1 17/1/1
f 12/10/1 18/12/1 17/1/1

usemtl texture_antarctic_floor_6
f 17/19/1 18/18/1 19/17/1
f 18/18/1 20/20/1 19/17/1
f 20/1/1 18/14/1 21/15/1
f 18/14/1 22/16/1 21/15/1
f 17/22/1 19/21/1 23/19/1
f 19/21/1 24/23/1 23/19/1

usemtl texture_antarctic_wall_3
f 26/25/3 17/1/3 25/24/3
f 17/1/3 23/26/3 25/24/3

usemtl texture_egypt_floor0003
f 19/27/1 20/10/1 27/1/1
f 20/10/1 28/12/1 27/1/1
f 27/29/1 28/28/1 29/1/1
f 28/28/1 30/12/1 29/1/1
f 27/30/1 29/15/1 31/29/1
f 29/15/1 32/1/1 31/29/1
f 30/1/1 28/29/1 33/15/1
f 28/29/1 34/30/1 33/15/1

