# WaveFront *.obj file (generated by CINEMA 4D)

mtllib ./GameObjectData.mtl

v -0.31048852205276 4 37.28273391723633
v -0.31048852205276 6 37.28273391723633
v 0.18951146304607 4 37.28273391723633
v 0.18951146304607 6 37.28273391723633
v 0.18191534280777 4 37.36956024169922
v 0.18191534280777 6 37.36956024169922
v 0.15935778617859 4 37.4537467956543
v 0.15935778617859 6 37.4537467956543
v 0.12252417206764 4 37.53273391723633
v 0.12252417206764 6 37.53273391723633
v 0.0725336894393 4 37.60412979125977
v 0.0725336894393 6 37.60412979125977
v 0.01090527325869 4 37.66575622558594
v 0.01090527325869 6 37.66575622558594
v -0.06048853322864 4 37.71574783325195
v -0.06048853322864 6 37.71574783325195
v -0.13947845995426 4 37.75258255004883
v -0.13947845995426 6 37.75258255004883
v -0.22366444766521 4 37.77513885498047
v -0.22366444766521 6 37.77513885498047
v -0.31048852205276 4 37.78273391723633
v -0.31048852205276 6 37.78273391723633
v -0.39731261134148 4 37.77513885498047
v -0.39731261134148 6 37.77513885498047
v -0.48149859905243 4 37.75258255004883
v -0.48149859905243 6 37.75258255004883
v -0.56048852205276 4 37.71574783325195
v -0.56048852205276 6 37.71574783325195
v -0.63188230991364 4 37.66575622558594
v -0.63188230991364 6 37.66575622558594
v -0.69351077079773 4 37.60412979125977
v -0.69351077079773 6 37.60412979125977
v -0.74350124597549 4 37.53273391723633
v -0.74350124597549 6 37.53273391723633
v -0.78033483028412 4 37.4537467956543
v -0.78033483028412 6 37.4537467956543
v -0.8028923869133 4 37.36956024169922
v -0.8028923869133 6 37.36956024169922
v -0.81048852205276 4 37.28273391723633
v -0.81048852205276 6 37.28273391723633
v -0.8028923869133 4 37.1959114074707
v -0.8028923869133 6 37.1959114074707
v -0.78033483028412 4 37.11172485351562
v -0.78033483028412 6 37.11172485351562
v -0.74350124597549 4 37.03273391723633
v -0.74350124597549 6 37.03273391723633
v -0.69351077079773 4 36.96134185791016
v -0.69351077079773 6 36.96134185791016
v -0.63188230991364 4 36.89971542358398
v -0.63188230991364 6 36.89971542358398
v -0.56048852205276 4 36.84972381591797
v -0.56048852205276 6 36.84972381591797
v -0.48149859905243 4 36.81288909912109
v -0.48149859905243 6 36.81288909912109
v -0.39731261134148 4 36.79033279418945
v -0.39731261134148 6 36.79033279418945
v -0.31048852205276 4 36.78273391723633
v -0.31048852205276 6 36.78273391723633
v -0.22366444766521 4 36.79033279418945
v -0.22366444766521 6 36.79033279418945
v -0.13947845995426 4 36.81288909912109
v -0.13947845995426 6 36.81288909912109
v -0.06048853322864 4 36.84972381591797
v -0.06048853322864 6 36.84972381591797
v 0.01090527325869 4 36.89971542358398
v 0.01090527325869 6 36.89971542358398
v 0.0725336894393 4 36.96134185791016
v 0.0725336894393 6 36.96134185791016
v 0.12252417206764 4 37.03273391723633
v 0.12252417206764 6 37.03273391723633
v 0.15935778617859 4 37.11172485351562
v 0.15935778617859 6 37.11172485351562
v 0.18191534280777 4 37.1959114074707
v 0.18191534280777 6 37.1959114074707
# 74 vertices

vn 0 -1 0
vn 0 0 0
vn 1 0 -0.00000190715537
vn 0.98480808734894 0 0.17364618182182
vn 0 1 0
vn 0.93969058990479 0 0.34202572703362
vn 0.86602538824081 0 0.5
vn 0.7660436630249 0 0.6427885890007
vn 0.64278548955917 0 0.76604622602463
vn 0.50000965595245 0 0.86601984500885
vn 0.34201899170876 0 0.93969303369522
vn 0.17363533377647 0 0.98480999469757
vn 0.00000000747903 0 1
vn -0.17363531887531 0 0.98480999469757
vn -0.34201899170876 0 0.93969303369522
vn -0.50000965595245 0 0.86601984500885
vn -0.64278542995453 0 0.76604628562927
vn -0.76604354381561 0 0.64278864860535
vn -0.8660255074501 0 0.49999988079071
vn -0.93969064950943 0 0.342025578022
vn -0.98480808734894 0 0.17364625632763
vn -1 0 -0.00000190341575
vn -0.98480778932571 0 -0.17364813387394
vn -0.9396938085556 0 -0.34201690554619
vn -0.86602383852005 0 -0.50000274181366
vn -0.76603549718857 0 -0.6427983045578
vn -0.64278542995453 0 -0.76604628562927
vn -0.50000965595245 0 -0.86601984500885
vn -0.34201899170876 0 -0.93969303369522
vn -0.17365677654743 0 -0.98480623960495
vn 0.00000000747906 0 -1
vn 0.17365679144859 0 -0.98480623960495
vn 0.34201899170876 0 -0.93969303369522
vn 0.50000965595245 0 -0.86601984500885
vn 0.64278548955917 0 -0.76604622602463
vn 0.76603555679321 0 -0.64279818534851
vn 0.86602371931076 0 -0.50000292062759
vn 0.93969374895096 0 -0.3420170545578
vn 0.98480778932571 0 -0.17364804446697
# 39 normals

vt 0.5 0.5 0
vt 0 0.5 0
vt 0.00759612349793 0.58682411909103 0
vt 0 0 0
vt 0 1 0
vt 0.02777777798474 1 0
vt 0.02777777798474 0 0
vt 1 0.5 0
vt 0.99240386486053 0.58682411909103 0
vt 0.030153689906 0.67101007699966 0
vt 0.05555555596948 1 0
vt 0.05555555596948 0 0
vt 0.96984630823135 0.67101007699966 0
vt 0.06698729842901 0.75 0
vt 0.08333333581686 1 0
vt 0.08333333581686 0 0
vt 0.93301272392273 0.75 0
vt 0.11697778105736 0.82139384746552 0
vt 0.11111111193895 1 0
vt 0.11111111193895 0 0
vt 0.88302224874496 0.82139384746552 0
vt 0.17860619723797 0.88302218914032 0
vt 0.13888889551163 1 0
vt 0.13888889551163 0 0
vt 0.82139378786087 0.88302218914032 0
vt 0.25 0.93301272392273 0
vt 0.16666667163372 1 0
vt 0.16666667163372 0 0
vt 0.75 0.93301272392273 0
vt 0.32898992300034 0.96984630823135 0
vt 0.19444444775581 1 0
vt 0.19444444775581 0 0
vt 0.67101007699966 0.96984630823135 0
vt 0.41317591071129 0.99240386486053 0
vt 0.22222222387791 1 0
vt 0.22222222387791 0 0
vt 0.58682405948639 0.99240386486053 0
vt 0.5 1 0
vt 0.25 1 0
vt 0.25 0 0
vt 0.27777779102325 1 0
vt 0.27777779102325 0 0
vt 0.30555555224419 1 0
vt 0.30555555224419 0 0
vt 0.33333334326744 1 0
vt 0.33333334326744 0 0
vt 0.36111110448837 1 0
vt 0.36111110448837 0 0
vt 0.38888889551163 1 0
vt 0.38888889551163 0 0
vt 0.41666665673256 1 0
vt 0.41666665673256 0 0
vt 0.44444444775581 1 0
vt 0.44444444775581 0 0
vt 0.47222220897675 1 0
vt 0.47222220897675 0 0
vt 0.5 0 0
vt 0.99240386486053 0.41317594051361 0
vt 0.52777779102325 1 0
vt 0.52777779102325 0 0
vt 0.00759612349793 0.41317594051361 0
vt 0.96984630823135 0.32898998260498 0
vt 0.55555558204651 1 0
vt 0.55555558204651 0 0
vt 0.030153689906 0.32898998260498 0
vt 0.93301272392273 0.25 0
vt 0.58333331346512 1 0
vt 0.58333331346512 0 0
vt 0.06698729842901 0.25 0
vt 0.88302224874496 0.17860627174377 0
vt 0.61111110448837 1 0
vt 0.61111110448837 0 0
vt 0.11697778105736 0.17860627174377 0
vt 0.82139378786087 0.11697781085968 0
vt 0.63888889551163 1 0
vt 0.63888889551163 0 0
vt 0.17860619723797 0.11697781085968 0
vt 0.75 0.06698727607727 0
vt 0.66666668653488 1 0
vt 0.66666668653488 0 0
vt 0.25 0.06698727607727 0
vt 0.67101007699966 0.03015375137329 0
vt 0.69444441795349 1 0
vt 0.69444441795349 0 0
vt 0.32898992300034 0.03015375137329 0
vt 0.58682405948639 0.00759613513947 0
vt 0.72222220897675 1 0
vt 0.72222220897675 0 0
vt 0.41317591071129 0.00759613513947 0
vt 0.75 1 0
vt 0.75 0 0
vt 0.77777779102325 1 0
vt 0.77777779102325 0 0
vt 0.80555558204651 1 0
vt 0.80555558204651 0 0
vt 0.83333331346512 1 0
vt 0.83333331346512 0 0
vt 0.86111110448837 1 0
vt 0.86111110448837 0 0
vt 0.88888889551163 1 0
vt 0.88888889551163 0 0
vt 0.91666668653488 1 0
vt 0.91666668653488 0 0
vt 0.94444441795349 1 0
vt 0.94444441795349 0 0
vt 0.97222220897675 1 0
vt 0.97222220897675 0 0
vt 1 1 0
vt 1 0 0
# 109 texture coordinates

o Shark
usemtl Monster
f 1/1/1 3/2/1 5/3/1
f 3/4/3 4/5/3 6/6/4 5/7/4
f 4/8/5 2/1/5 6/9/5
f 1/1/1 5/3/1 7/10/1
f 5/7/4 6/6/4 8/11/6 7/12/6
f 6/9/5 2/1/5 8/13/5
f 1/1/1 7/10/1 9/14/1
f 7/12/6 8/11/6 10/15/7 9/16/7
f 8/13/5 2/1/5 10/17/5
f 1/1/1 9/14/1 11/18/1
f 9/16/7 10/15/7 12/19/8 11/20/8
f 10/17/5 2/1/5 12/21/5
f 1/1/1 11/18/1 13/22/1
f 11/20/8 12/19/8 14/23/9 13/24/9
f 12/21/5 2/1/5 14/25/5
f 1/1/1 13/22/1 15/26/1
f 13/24/9 14/23/9 16/27/10 15/28/10
f 14/25/5 2/1/5 16/29/5
f 1/1/1 15/26/1 17/30/1
f 15/28/10 16/27/10 18/31/11 17/32/11
f 16/29/5 2/1/5 18/33/5
f 1/1/1 17/30/1 19/34/1
f 17/32/11 18/31/11 20/35/12 19/36/12
f 18/33/5 2/1/5 20/37/5
f 1/1/1 19/34/1 21/38/1
f 19/36/12 20/35/12 22/39/13 21/40/13
f 20/37/5 2/1/5 22/38/5
f 1/1/1 21/38/1 23/37/1
f 21/40/13 22/39/13 24/41/14 23/42/14
f 22/38/5 2/1/5 24/34/5
f 1/1/1 23/37/1 25/33/1
f 23/42/14 24/41/14 26/43/15 25/44/15
f 24/34/5 2/1/5 26/30/5
f 1/1/1 25/33/1 27/29/1
f 25/44/15 26/43/15 28/45/16 27/46/16
f 26/30/5 2/1/5 28/26/5
f 1/1/1 27/29/1 29/25/1
f 27/46/16 28/45/16 30/47/17 29/48/17
f 28/26/5 2/1/5 30/22/5
f 1/1/1 29/25/1 31/21/1
f 29/48/17 30/47/17 32/49/18 31/50/18
f 30/22/5 2/1/5 32/18/5
f 1/1/1 31/21/1 33/17/1
f 31/50/18 32/49/18 34/51/19 33/52/19
f 32/18/5 2/1/5 34/14/5
f 1/1/1 33/17/1 35/13/1
f 33/52/19 34/51/19 36/53/20 35/54/20
f 34/14/5 2/1/5 36/10/5
f 1/1/1 35/13/1 37/9/1
f 35/54/20 36/53/20 38/55/21 37/56/21
f 36/10/5 2/1/5 38/3/5
f 1/1/1 37/9/1 39/8/1
f 37/56/21 38/55/21 40/38/22 39/57/22
f 38/3/5 2/1/5 40/2/5
f 1/1/1 39/8/1 41/58/1
f 39/57/22 40/38/22 42/59/23 41/60/23
f 40/2/5 2/1/5 42/61/5
f 1/1/1 41/58/1 43/62/1
f 41/60/23 42/59/23 44/63/24 43/64/24
f 42/61/5 2/1/5 44/65/5
f 1/1/1 43/62/1 45/66/1
f 43/64/24 44/63/24 46/67/25 45/68/25
f 44/65/5 2/1/5 46/69/5
f 1/1/1 45/66/1 47/70/1
f 45/68/25 46/67/25 48/71/26 47/72/26
f 46/69/5 2/1/5 48/73/5
f 1/1/1 47/70/1 49/74/1
f 47/72/26 48/71/26 50/75/27 49/76/27
f 48/73/5 2/1/5 50/77/5
f 1/1/1 49/74/1 51/78/1
f 49/76/27 50/75/27 52/79/28 51/80/28
f 50/77/5 2/1/5 52/81/5
f 1/1/1 51/78/1 53/82/1
f 51/80/28 52/79/28 54/83/29 53/84/29
f 52/81/5 2/1/5 54/85/5
f 1/1/1 53/82/1 55/86/1
f 53/84/29 54/83/29 56/87/30 55/88/30
f 54/85/5 2/1/5 56/89/5
f 1/1/1 55/86/1 57/57/1
f 55/88/30 56/87/30 58/90/31 57/91/31
f 56/89/5 2/1/5 58/57/5
f 1/1/1 57/57/1 59/89/1
f 57/91/31 58/90/31 60/92/32 59/93/32
f 58/57/5 2/1/5 60/86/5
f 1/1/1 59/89/1 61/85/1
f 59/93/32 60/92/32 62/94/33 61/95/33
f 60/86/5 2/1/5 62/82/5
f 1/1/1 61/85/1 63/81/1
f 61/95/33 62/94/33 64/96/34 63/97/34
f 62/82/5 2/1/5 64/78/5
f 1/1/1 63/81/1 65/77/1
f 63/97/34 64/96/34 66/98/35 65/99/35
f 64/78/5 2/1/5 66/74/5
f 1/1/1 65/77/1 67/73/1
f 65/99/35 66/98/35 68/100/36 67/101/36
f 66/74/5 2/1/5 68/70/5
f 1/1/1 67/73/1 69/69/1
f 67/101/36 68/100/36 70/102/37 69/103/37
f 68/70/5 2/1/5 70/66/5
f 1/1/1 69/69/1 71/65/1
f 69/103/37 70/102/37 72/104/38 71/105/38
f 70/66/5 2/1/5 72/62/5
f 1/1/1 71/65/1 73/61/1
f 71/105/38 72/104/38 74/106/39 73/107/39
f 72/62/5 2/1/5 74/58/5
f 1/1/1 73/61/1 3/2/1
f 73/107/39 74/106/39 4/108/3 3/109/3
f 74/58/5 2/1/5 4/8/5

