# WaveFront *.obj file (generated by CINEMA 4D)

mtllib ./Cube.mtl

v 5 2 6
v 5 2 3
v 5 4 6
v 5 4 3
v 4 2 3
v 4 4 3
v 4 2 0
v 4 4 0
v 2 2 0
v 2 4 0
v 2 2 3
v 2 4 3
v 1 2 3
v 1 4 3
v 1 2 5
v 1 4 5
v -2 2 5
v -2 4 5
v -2 2 9
v -2 4 9
v -4 2 9
v -4 4 9
v -4 2 21
v -4 4 21
v 3 4 6
v 3 2 6
v 3 4 7
v 3 2 7
v 1 4 7
v 1 2 7
v 1 4 8
v 1 2 8
v 0 4 8
v 0 2 8
v 0 4 9
v 0 2 9
v 2 4 9
v 2 2 9
v 2 4 21
v 2 2 21
v 10 4 21
v 10 2 21
v -12 2 21
v -12 4 21
v -12 2 22
v -12 4 22
v -9 2 24
v -12 4 24
v -12 2 24
v -9 4 24
v -13 2 22
v -13 4 22
v -14 2 24
v -14 4 23
v -14 2 23
v -14 4 24
v -15 2 24
v -15 4 24
v -15 2 25
v -15 4 25
v -16 2 25
v -16 4 25
v -16 2 26
v -16 4 26
v -17 2 26
v -17 4 26
v -17 2 32
v -17 4 32
v -17 2 42
v -17 4 39
v -17 2 39
v -17 4 42
v -16 2 42
v -16 4 42
v -16 2 43
v -16 4 43
v -15 2 43
v -15 4 43
v -13 2 37
v -13 4 43
v -13 2 43
v -13 4 37
v -15 2 44
v -15 4 44
v -14 2 44
v -14 4 44
v -14 2 45
v -14 4 45
v -13 2 45
v -13 4 45
v -13 2 46
v -13 4 46
v -12 2 46
v -12 4 46
v -12 2 47
v -12 4 47
v -2 2 47
v -2 4 47
v 11 2 47
v 0 4 47
v 0 2 47
v 11 4 47
v 7 2 43
v 7 4 45
v 7 2 45
v 7 4 43
v 11 2 46
v 11 4 46
v 12 2 46
v 12 4 46
v 12 2 45
v 12 4 45
v 13 2 45
v 13 4 45
v 13 2 44
v 13 4 44
v 14 2 44
v 14 4 44
v 14 2 43
v 14 4 43
v 15 2 43
v 15 4 43
v 15 2 39
v 15 4 39
v -12 2 37
v -12 4 37
v -12 2 42
v -12 4 42
v -9 2 42
v -9 4 42
v -9 2 43
v -9 4 43
v -13 2 23
v -13 4 23
v -9 2 25
v -9 4 25
v -11 2 25
v -11 4 25
v -11 2 28
v -11 4 28
v -12 2 28
v -12 4 28
v 10 2 25
v 10 4 24
v 10 2 24
v 10 4 25
v 10 4 22
v 10 2 22
v 9 2 25
v 9 4 25
v 9 2 28
v 9 4 28
v 8 2 28
v 8 4 28
v 8 2 25
v 8 4 25
v 6 2 25
v 6 4 25
v 6 2 24
v 6 4 24
v 7 2 41
v 7 4 41
v 10 2 41
v 10 4 41
v 10 2 42
v 10 4 42
v 8 2 42
v 8 4 42
v 8 2 45
v 8 4 45
v 11 4 22
v 11 2 22
v 11 4 23
v 11 2 23
v 12 4 23
v 12 2 23
v 12 4 24
v 12 2 24
v 13 4 24
v 13 2 24
v 13 4 25
v 13 2 25
v 14 4 25
v 14 2 25
v 14 4 26
v 14 2 26
v 15 4 26
v 15 2 26
v 15 4 32
v 15 2 32
v -12 6 21
v -4 6 21
v 2 6 21
v -12 6 22
v -12 6 24
v -9 6 24
v -13 6 22
v -14 6 23
v -14 6 24
v -15 6 24
v -15 6 25
v -16 6 25
v -16 6 26
v -17 6 26
v -17 6 32
v -17 6 42
v -17 6 39
v -16 6 42
v -16 6 43
v -15 6 43
v -13 6 43
v -13 6 37
v -15 6 44
v -14 6 44
v -14 6 45
v -13 6 45
v -13 6 46
v -12 6 46
v -12 6 47
v -2 6 47
v 0 6 47
v 11 6 47
v 11 6 46
v 12 6 46
v 12 6 45
v 13 6 45
v 13 6 44
v 14 6 44
v 14 6 43
v 15 6 43
v 15 6 39
v -12 6 37
v -12 6 42
v -9 6 42
v -9 6 43
v -13 6 23
v -9 6 25
v -11 6 25
v -11 6 28
v -12 6 28
v 10 6 24
v 10 6 25
v 10 6 22
v 10 6 21
v 9 6 25
v 9 6 28
v 8 6 28
v 8 6 25
v 6 6 25
v 6 6 24
v 11 6 22
v 11 6 23
v 12 6 23
v 12 6 24
v 13 6 24
v 13 6 25
v 14 6 25
v 14 6 26
v 15 6 26
v 15 6 32
v 6 8 24
v 10 8 24
v -17 4 37
v -17 6 34
v -17 4 34
v -17 6 37
v 15 4 34
v 15 6 37
v 15 4 37
v 15 6 34
v -17 2 37
v -17 2 34
v 15 2 34
v 15 2 37
v -18 4 34
v -18 2 34
v -18 2 37
v -18 4 37
v -20 2 32
v -20 4 32
v -20 2 39
v -20 4 39
v 18 2 39
v 18 4 39
v 18 2 32
v 18 4 32
v 16 4 37
v 16 2 37
v 16 4 34
v 16 2 34
v -2 2 50
v -2 4 50
v -3 2 50
v -3 4 50
v -3 2 49
v -3 4 49
v -8 2 49
v -8 4 49
v -8 2 53
v -8 4 53
v -3 2 53
v -3 4 53
v -3 2 52
v -3 4 52
v 0 2 52
v 0 4 52
v 9 8 28
v 9 8 25
v 8 8 28
v 8 8 25
v 6 8 25
v 10 8 25
v -17 8 32
v -17 8 26
v -16 8 26
v -16 8 25
v -15 8 25
v -15 8 24
v -14 8 24
v -14 8 23
v -13 8 23
v -13 8 22
v -12 8 22
v -12 8 21
v 10 8 21
v 10 8 22
v 11 8 22
v 11 8 23
v 12 8 23
v 12 8 24
v 13 8 24
v 13 8 25
v 14 8 25
v 14 8 26
v 15 8 26
v 15 8 43
v 14 8 43
v 14 8 44
v 13 8 44
v 13 8 45
v 12 8 45
v 12 8 46
v 11 8 46
v 11 8 47
v -12 8 47
v -12 8 46
v -13 8 46
v -13 8 45
v -14 8 45
v -14 8 44
v -15 8 44
v -15 8 43
v -16 8 43
v -16 8 42
v -17 8 42
v -11 8 28
v -11 8 25
v -12 8 28
v -12 8 24
v -9 8 24
v -9 8 25
v -12 8 37
v -13 8 37
v -12 8 42
v -13 8 43
v -9 8 43
v -9 8 42
v 7 6 43
v 7 6 45
v 8 6 45
v 8 6 42
v 7 6 41
v 10 6 41
v 10 6 42
# 374 vertices

vn -1 0 0
vn 0 0 0
vn 0 0 1
vn 1 0 0
vn 0 0 -1
# 5 normals

vt 3 0 0
vt 0 0 0
vt 3 2 0
vt 0 1 0
vt 0 2 0
vt 1 2 0
vt 1 0 0
vt 2 2 0
vt 2 0 0
vt 4 2 0
vt 4 0 0
vt 12 2 0
vt 12 0 0
vt 8 2 0
vt 8 0 0
vt 6 2 0
vt 6 0 0
vt 10 2 0
vt 10 0 0
vt 11 2 0
vt 11 0 0
vt 5 2 0
vt 5 0 0
vt 7 2 0
vt 7 0 0
vt 22 2 0
vt 22 0 0
vt 17 2 0
vt 17 0 0
vt 23 2 0
vt 23 0 0
# 31 texture coordinates

o Cube
usemtl texture_rock_wall_1
f 3/3/1 2/2/1 1/1/1
f 3/3/1 4/5/1 2/2/1
f 2/7/3 4/6/3 5/2/3
f 4/6/3 6/5/3 5/2/3
f 5/1/1 6/3/1 7/2/1
f 6/3/1 8/5/1 7/2/1
f 7/9/3 8/8/3 9/2/3
f 8/8/3 10/5/3 9/2/3
f 9/1/4 10/3/4 11/2/4
f 10/3/4 12/5/4 11/2/4
f 11/7/3 12/6/3 13/2/3
f 12/6/3 14/5/3 13/2/3
f 13/9/4 14/8/4 15/2/4
f 14/8/4 16/5/4 15/2/4
f 15/1/3 16/3/3 17/2/3
f 16/3/3 18/5/3 17/2/3
f 17/11/4 18/10/4 19/2/4
f 18/10/4 20/5/4 19/2/4
f 19/9/3 20/8/3 21/2/3
f 20/8/3 22/5/3 21/2/3
f 21/13/4 22/12/4 23/2/4
f 22/12/4 24/5/4 23/2/4
f 3/5/5 1/2/5 25/8/5
f 1/2/5 26/9/5 25/8/5
f 25/5/1 26/2/1 27/6/1
f 26/2/1 28/7/1 27/6/1
f 27/5/5 28/2/5 29/8/5
f 28/2/5 30/9/5 29/8/5
f 29/4/2 30/2/2 29/2/2
f 30/4/2 30/2/2 29/2/2
f 29/5/1 30/2/1 31/6/1
f 30/2/1 32/7/1 31/6/1
f 31/5/5 32/2/5 33/6/5
f 32/2/5 34/7/5 33/6/5
f 33/5/1 34/2/1 35/6/1
f 34/2/1 36/7/1 35/6/1
f 35/5/3 36/2/3 37/8/3
f 36/2/3 38/9/3 37/8/3
f 37/5/1 38/2/1 39/12/1
f 38/2/1 40/13/1 39/12/1

usemtl texture_boss_wall_1a
f 39/5/3 40/2/3 41/14/3
f 40/2/3 42/15/3 41/14/3
f 23/15/3 24/14/3 43/2/3
f 24/14/3 44/5/3 43/2/3
f 43/7/4 44/6/4 45/2/4
f 44/6/4 46/5/4 45/2/4
f 49/1/5 48/3/5 47/2/5
f 48/3/5 50/5/5 47/2/5
f 45/7/3 46/6/3 51/2/3
f 46/6/3 52/5/3 51/2/3
f 55/7/4 54/6/4 53/2/4
f 54/6/4 56/5/4 53/2/4
f 53/7/3 56/6/3 57/2/3
f 56/6/3 58/5/3 57/2/3
f 57/7/4 58/6/4 59/2/4
f 58/6/4 60/5/4 59/2/4
f 59/7/3 60/6/3 61/2/3
f 60/6/3 62/5/3 61/2/3
f 61/7/4 62/6/4 63/2/4
f 62/6/4 64/5/4 63/2/4
f 63/7/3 64/6/3 65/2/3
f 64/6/3 66/5/3 65/2/3
f 65/17/4 66/16/4 67/2/4
f 66/16/4 68/5/4 67/2/4
f 71/1/4 70/3/4 69/2/4
f 70/3/4 72/5/4 69/2/4
f 69/7/5 72/6/5 73/2/5
f 72/6/5 74/5/5 73/2/5
f 73/7/4 74/6/4 75/2/4
f 74/6/4 76/5/4 75/2/4
f 75/7/5 76/6/5 77/2/5
f 76/6/5 78/5/5 77/2/5
f 81/17/1 80/16/1 79/2/1
f 80/16/1 82/5/1 79/2/1
f 77/7/4 78/6/4 83/2/4
f 78/6/4 84/5/4 83/2/4
f 83/7/5 84/6/5 85/2/5
f 84/6/5 86/5/5 85/2/5
f 85/7/4 86/6/4 87/2/4
f 86/6/4 88/5/4 87/2/4
f 87/7/5 88/6/5 89/2/5
f 88/6/5 90/5/5 89/2/5
f 89/7/4 90/6/4 91/2/4
f 90/6/4 92/5/4 91/2/4
f 91/7/5 92/6/5 93/2/5
f 92/6/5 94/5/5 93/2/5
f 93/7/4 94/6/4 95/2/4
f 94/6/4 96/5/4 95/2/4
f 95/19/5 96/18/5 97/2/5
f 96/18/5 98/5/5 97/2/5
f 101/21/5 100/20/5 99/2/5
f 100/20/5 102/5/5 99/2/5
f 105/9/1 104/8/1 103/2/1
f 104/8/1 106/5/1 103/2/1
f 99/7/1 102/6/1 107/2/1
f 102/6/1 108/5/1 107/2/1
f 107/7/5 108/6/5 109/2/5
f 108/6/5 110/5/5 109/2/5
f 109/7/1 110/6/1 111/2/1
f 110/6/1 112/5/1 111/2/1
f 111/7/5 112/6/5 113/2/5
f 112/6/5 114/5/5 113/2/5
f 113/7/1 114/6/1 115/2/1
f 114/6/1 116/5/1 115/2/1
f 115/7/5 116/6/5 117/2/5
f 116/6/5 118/5/5 117/2/5
f 117/7/1 118/6/1 119/2/1
f 118/6/1 120/5/1 119/2/1
f 119/7/5 120/6/5 121/2/5
f 120/6/5 122/5/5 121/2/5
f 121/11/1 122/10/1 123/2/1
f 122/10/1 124/5/1 123/2/1
f 79/7/5 82/6/5 125/2/5
f 82/6/5 126/5/5 125/2/5
f 125/23/4 126/22/4 127/2/4
f 126/22/4 128/5/4 127/2/4
f 127/1/5 128/3/5 129/2/5
f 128/3/5 130/5/5 129/2/5
f 129/7/4 130/6/4 131/2/4
f 130/6/4 132/5/4 131/2/4
f 131/11/3 132/10/3 81/2/3
f 132/10/3 80/5/3 81/2/3
f 51/7/4 52/6/4 133/2/4
f 52/6/4 134/5/4 133/2/4
f 133/7/3 134/6/3 55/2/3
f 134/6/3 54/5/3 55/2/3
f 47/7/4 50/6/4 135/2/4
f 50/6/4 136/5/4 135/2/4
f 135/9/3 136/8/3 137/2/3
f 136/8/3 138/5/3 137/2/3
f 137/1/4 138/3/4 139/2/4
f 138/3/4 140/5/4 139/2/4
f 139/7/3 140/6/3 141/2/3
f 140/6/3 142/5/3 141/2/3
f 141/11/1 142/10/1 49/2/1
f 142/10/1 48/5/1 49/2/1
f 145/7/4 144/6/4 143/2/4
f 144/6/4 146/5/4 143/2/4
f 148/7/1 147/6/1 42/2/1
f 147/6/1 41/5/1 42/2/1
f 143/7/3 146/6/3 149/2/3
f 146/6/3 150/5/3 149/2/3
f 149/1/4 150/3/4 151/2/4
f 150/3/4 152/5/4 151/2/4
f 151/7/3 152/6/3 153/2/3
f 152/6/3 154/5/3 153/2/3
f 153/1/1 154/3/1 155/2/1
f 154/3/1 156/5/1 155/2/1
f 155/9/3 156/8/3 157/2/3
f 156/8/3 158/5/3 157/2/3
f 157/7/1 158/6/1 159/2/1
f 158/6/1 160/5/1 159/2/1
f 159/11/5 160/10/5 145/2/5
f 160/10/5 144/5/5 145/2/5
f 103/9/1 106/8/1 161/2/1
f 106/8/1 162/5/1 161/2/1
f 161/1/5 162/3/5 163/2/5
f 162/3/5 164/5/5 163/2/5
f 163/7/4 164/6/4 165/2/4
f 164/6/4 166/5/4 165/2/4
f 165/9/3 166/8/3 167/2/3
f 166/8/3 168/5/3 167/2/3
f 167/1/4 168/3/4 169/2/4
f 168/3/4 170/5/4 169/2/4
f 169/7/3 170/6/3 105/2/3
f 170/6/3 104/5/3 105/2/3
f 147/5/3 148/2/3 171/6/3
f 148/2/3 172/7/3 171/6/3
f 171/5/1 172/2/1 173/6/1
f 172/2/1 174/7/1 173/6/1
f 173/5/3 174/2/3 175/6/3
f 174/2/3 176/7/3 175/6/3
f 175/5/1 176/2/1 177/6/1
f 176/2/1 178/7/1 177/6/1
f 177/5/3 178/2/3 179/6/3
f 178/2/3 180/7/3 179/6/3
f 179/5/1 180/2/1 181/6/1
f 180/2/1 182/7/1 181/6/1
f 181/5/3 182/2/3 183/6/3
f 182/2/3 184/7/3 183/6/3
f 183/5/1 184/2/1 185/6/1
f 184/2/1 186/7/1 185/6/1
f 185/5/3 186/2/3 187/6/3
f 186/2/3 188/7/3 187/6/3
f 187/5/1 188/2/1 189/16/1
f 188/2/1 190/17/1 189/16/1

usemtl texture_boss_wall_1b
f 44/2/3 24/15/3 191/5/3
f 24/15/3 192/14/3 191/5/3
f 192/5/3 24/2/3 193/16/3
f 24/2/3 39/17/3 193/16/3
f 44/7/4 191/6/4 46/2/4
f 191/6/4 194/5/4 46/2/4
f 48/1/5 195/3/5 50/2/5
f 195/3/5 196/5/5 50/2/5
f 46/7/3 194/6/3 52/2/3
f 194/6/3 197/5/3 52/2/3
f 54/7/4 198/6/4 56/2/4
f 198/6/4 199/5/4 56/2/4
f 56/7/3 199/6/3 58/2/3
f 199/6/3 200/5/3 58/2/3
f 58/7/4 200/6/4 60/2/4
f 200/6/4 201/5/4 60/2/4
f 60/7/3 201/6/3 62/2/3
f 201/6/3 202/5/3 62/2/3
f 62/7/4 202/6/4 64/2/4
f 202/6/4 203/5/4 64/2/4
f 64/7/3 203/6/3 66/2/3
f 203/6/3 204/5/3 66/2/3
f 66/17/4 204/16/4 68/2/4
f 204/16/4 205/5/4 68/2/4
f 72/2/4 70/1/4 206/5/4
f 70/1/4 207/3/4 206/5/4
f 72/7/5 206/6/5 74/2/5
f 206/6/5 208/5/5 74/2/5
f 74/7/4 208/6/4 76/2/4
f 208/6/4 209/5/4 76/2/4
f 76/7/5 209/6/5 78/2/5
f 209/6/5 210/5/5 78/2/5
f 80/17/1 211/16/1 82/2/1
f 211/16/1 212/5/1 82/2/1
f 78/7/4 210/6/4 84/2/4
f 210/6/4 213/5/4 84/2/4
f 84/7/5 213/6/5 86/2/5
f 213/6/5 214/5/5 86/2/5
f 86/7/4 214/6/4 88/2/4
f 214/6/4 215/5/4 88/2/4
f 88/7/5 215/6/5 90/2/5
f 215/6/5 216/5/5 90/2/5
f 90/7/4 216/6/4 92/2/4
f 216/6/4 217/5/4 92/2/4
f 92/7/5 217/6/5 94/2/5
f 217/6/5 218/5/5 94/2/5
f 94/7/4 218/6/4 96/2/4
f 218/6/4 219/5/4 96/2/4
f 96/19/5 219/18/5 98/2/5
f 219/18/5 220/5/5 98/2/5
f 100/21/5 221/20/5 102/2/5
f 221/20/5 222/5/5 102/2/5
f 102/7/1 222/6/1 108/2/1
f 222/6/1 223/5/1 108/2/1
f 108/7/5 223/6/5 110/2/5
f 223/6/5 224/5/5 110/2/5
f 110/7/1 224/6/1 112/2/1
f 224/6/1 225/5/1 112/2/1
f 112/7/5 225/6/5 114/2/5
f 225/6/5 226/5/5 114/2/5
f 114/7/1 226/6/1 116/2/1
f 226/6/1 227/5/1 116/2/1
f 116/7/5 227/6/5 118/2/5
f 227/6/5 228/5/5 118/2/5
f 118/7/1 228/6/1 120/2/1
f 228/6/1 229/5/1 120/2/1
f 120/7/5 229/6/5 122/2/5
f 229/6/5 230/5/5 122/2/5
f 122/11/1 230/10/1 124/2/1
f 230/10/1 231/5/1 124/2/1
f 82/7/5 212/6/5 126/2/5
f 212/6/5 232/5/5 126/2/5
f 126/23/4 232/22/4 128/2/4
f 232/22/4 233/5/4 128/2/4
f 128/1/5 233/3/5 130/2/5
f 233/3/5 234/5/5 130/2/5
f 130/7/4 234/6/4 132/2/4
f 234/6/4 235/5/4 132/2/4
f 132/11/3 235/10/3 80/2/3
f 235/10/3 211/5/3 80/2/3
f 52/7/4 197/6/4 134/2/4
f 197/6/4 236/5/4 134/2/4
f 134/7/3 236/6/3 54/2/3
f 236/6/3 198/5/3 54/2/3
f 50/7/4 196/6/4 136/2/4
f 196/6/4 237/5/4 136/2/4
f 136/9/3 237/8/3 138/2/3
f 237/8/3 238/5/3 138/2/3
f 138/1/4 238/3/4 140/2/4
f 238/3/4 239/5/4 140/2/4
f 140/7/3 239/6/3 142/2/3
f 239/6/3 240/5/3 142/2/3
f 142/11/1 240/10/1 48/2/1
f 240/10/1 195/5/1 48/2/1
f 144/7/4 241/6/4 146/2/4
f 241/6/4 242/5/4 146/2/4
f 147/7/1 243/6/1 41/2/1
f 243/6/1 244/5/1 41/2/1
f 146/7/3 242/6/3 150/2/3
f 242/6/3 245/5/3 150/2/3
f 150/1/4 245/3/4 152/2/4
f 245/3/4 246/5/4 152/2/4
f 152/7/3 246/6/3 154/2/3
f 246/6/3 247/5/3 154/2/3
f 154/1/1 247/3/1 156/2/1
f 247/3/1 248/5/1 156/2/1
f 156/9/3 248/8/3 158/2/3
f 248/8/3 249/5/3 158/2/3
f 158/7/1 249/6/1 160/2/1
f 249/6/1 250/5/1 160/2/1
f 160/11/5 250/10/5 144/2/5
f 250/10/5 241/5/5 144/2/5
f 221/5/5 100/2/5 220/8/5
f 100/2/5 98/9/5 220/8/5
f 193/5/3 39/2/3 244/14/3
f 39/2/3 41/15/3 244/14/3
f 243/5/3 147/2/3 251/6/3
f 147/2/3 171/7/3 251/6/3
f 251/5/1 171/2/1 252/6/1
f 171/2/1 173/7/1 252/6/1
f 252/5/3 173/2/3 253/6/3
f 173/2/3 175/7/3 253/6/3
f 253/5/1 175/2/1 254/6/1
f 175/2/1 177/7/1 254/6/1
f 254/5/3 177/2/3 255/6/3
f 177/2/3 179/7/3 255/6/3
f 255/5/1 179/2/1 256/6/1
f 179/2/1 181/7/1 256/6/1
f 256/5/3 181/2/3 257/6/3
f 181/2/3 183/7/3 257/6/3
f 257/5/1 183/2/1 258/6/1
f 183/2/1 185/7/1 258/6/1
f 258/5/3 185/2/3 259/6/3
f 185/2/3 187/7/3 259/6/3
f 259/5/1 187/2/1 260/16/1
f 187/2/1 189/17/1 260/16/1
f 250/11/5 261/10/5 241/2/5
f 261/10/5 262/5/5 241/2/5

usemtl texture_antarctic_wall_4a
f 44/4/2 191/2/2 44/2/2
f 191/4/2 191/2/2 44/2/2
f 60/4/2 201/2/2 60/2/2
f 201/4/2 201/2/2 60/2/2
f 183/4/2 257/2/2 183/2/2
f 257/4/2 257/2/2 183/2/2
f 175/4/2 253/2/2 175/2/2
f 253/4/2 253/2/2 175/2/2
f 152/4/2 246/2/2 152/2/2
f 246/4/2 246/2/2 152/2/2

usemtl texture_antarctic_wall_4_snow
f 43/4/2 44/2/2 43/2/2
f 44/4/2 44/2/2 43/2/2
f 59/4/2 60/2/2 59/2/2
f 60/4/2 60/2/2 59/2/2
f 184/4/2 183/2/2 184/2/2
f 183/4/2 183/2/2 184/2/2
f 176/4/2 175/2/2 176/2/2
f 175/4/2 175/2/2 176/2/2
f 151/4/2 152/2/2 151/2/2
f 152/4/2 152/2/2 151/2/2

usemtl texture_antarctic_wall_base_2
f 265/1/4 264/3/4 263/2/4
f 264/3/4 266/5/4 263/2/4
f 68/9/4 205/8/4 265/2/4
f 205/8/4 264/5/4 265/2/4
f 263/9/4 266/8/4 70/2/4
f 266/8/4 207/5/4 70/2/4
f 269/1/1 268/3/1 267/2/1
f 268/3/1 270/5/1 267/2/1
f 260/5/1 189/2/1 270/8/1
f 189/2/1 267/9/1 270/8/1
f 268/5/1 269/2/1 231/8/1
f 269/2/1 124/9/1 231/8/1

usemtl texture_antarctic_wall_base_2_snow
f 272/1/4 265/3/4 271/2/4
f 265/3/4 263/5/4 271/2/4
f 274/1/1 269/3/1 273/2/1
f 269/3/1 267/5/1 273/2/1
f 269/4/2 274/2/2 269/2/2
f 274/4/2 274/2/2 269/2/2

usemtl texture_antarctic_wall_base_1
f 265/5/5 272/2/5 275/6/5
f 272/2/5 276/7/5 275/6/5
f 271/7/3 263/6/3 277/2/3
f 263/6/3 278/5/3 277/2/3
f 277/1/1 278/3/1 276/2/1
f 278/3/1 275/5/1 276/2/1
f 67/1/3 68/3/3 279/2/3
f 68/3/3 280/5/3 279/2/3
f 279/25/4 280/24/4 281/2/4
f 280/24/4 282/5/4 281/2/4
f 281/1/5 282/3/5 71/2/5
f 282/3/5 70/5/5 71/2/5
f 123/1/5 124/3/5 283/2/5
f 124/3/5 284/5/5 283/2/5
f 283/25/1 284/24/1 285/2/1
f 284/24/1 286/5/1 285/2/1
f 285/1/3 286/3/3 190/2/3
f 286/3/3 189/5/3 190/2/3
f 269/5/3 274/2/3 287/6/3
f 274/2/3 288/7/3 287/6/3
f 287/5/4 288/2/4 289/3/4
f 288/2/4 290/1/4 289/3/4
f 289/5/5 290/2/5 267/6/5
f 290/2/5 273/7/5 267/6/5

usemtl texture_rock_wall_3
f 97/1/4 98/3/4 291/2/4
f 98/3/4 292/5/4 291/2/4
f 291/7/3 292/6/3 293/2/3
f 292/6/3 294/5/3 293/2/3
f 293/7/1 294/6/1 295/2/1
f 294/6/1 296/5/1 295/2/1
f 295/23/3 296/22/3 297/2/3
f 296/22/3 298/5/3 297/2/3
f 297/11/4 298/10/4 299/2/4
f 298/10/4 300/5/4 299/2/4
f 299/23/5 300/22/5 301/2/5
f 300/22/5 302/5/5 301/2/5
f 301/7/1 302/6/1 303/2/1
f 302/6/1 304/5/1 303/2/1
f 303/1/5 304/3/5 305/2/5
f 304/3/5 306/5/5 305/2/5
f 305/23/1 306/22/1 101/2/1
f 306/22/1 100/5/1 101/2/1

usemtl texture_boss_wall_1c
f 246/2/4 245/1/4 307/5/4
f 245/1/4 308/3/4 307/5/4
f 246/7/3 307/6/3 247/2/3
f 307/6/3 309/5/3 247/2/3
f 247/1/1 309/3/1 248/2/1
f 309/3/1 310/5/1 248/2/1
f 248/9/3 310/8/3 249/2/3
f 310/8/3 311/5/3 249/2/3
f 249/7/1 311/6/1 250/2/1
f 311/6/1 261/5/1 250/2/1
f 241/7/4 262/6/4 242/2/4
f 262/6/4 312/5/4 242/2/4
f 242/7/3 312/6/3 245/2/3
f 312/6/3 308/5/3 245/2/3
f 205/2/4 204/17/4 313/5/4
f 204/17/4 314/16/4 313/5/4
f 314/5/3 204/2/3 315/6/3
f 204/2/3 203/7/3 315/6/3
f 315/5/4 203/2/4 316/6/4
f 203/2/4 202/7/4 316/6/4
f 316/5/3 202/2/3 317/6/3
f 202/2/3 201/7/3 317/6/3
f 317/5/4 201/2/4 318/6/4
f 201/2/4 200/7/4 318/6/4
f 318/5/3 200/2/3 319/6/3
f 200/2/3 199/7/3 319/6/3
f 319/5/4 199/2/4 320/6/4
f 199/2/4 198/7/4 320/6/4
f 320/5/3 198/2/3 321/6/3
f 198/2/3 236/7/3 321/6/3
f 321/5/4 236/2/4 322/6/4
f 236/2/4 197/7/4 322/6/4
f 322/5/3 197/2/3 323/6/3
f 197/2/3 194/7/3 323/6/3
f 323/5/4 194/2/4 324/6/4
f 194/2/4 191/7/4 324/6/4
f 324/5/3 191/2/3 325/26/3
f 191/2/3 244/27/3 325/26/3
f 325/5/1 244/2/1 326/6/1
f 244/2/1 243/7/1 326/6/1
f 326/5/3 243/2/3 327/6/3
f 243/2/3 251/7/3 327/6/3
f 327/5/1 251/2/1 328/6/1
f 251/2/1 252/7/1 328/6/1
f 328/5/3 252/2/3 329/6/3
f 252/2/3 253/7/3 329/6/3
f 329/5/1 253/2/1 330/6/1
f 253/2/1 254/7/1 330/6/1
f 330/5/3 254/2/3 331/6/3
f 254/2/3 255/7/3 331/6/3
f 331/5/1 255/2/1 332/6/1
f 255/2/1 256/7/1 332/6/1
f 332/5/3 256/2/3 333/6/3
f 256/2/3 257/7/3 333/6/3
f 333/5/1 257/2/1 334/6/1
f 257/2/1 258/7/1 334/6/1
f 334/5/3 258/2/3 335/6/3
f 258/2/3 259/7/3 335/6/3
f 335/5/1 259/2/1 336/28/1
f 259/2/1 230/29/1 336/28/1
f 336/5/5 230/2/5 337/6/5
f 230/2/5 229/7/5 337/6/5
f 337/5/1 229/2/1 338/6/1
f 229/2/1 228/7/1 338/6/1
f 338/5/5 228/2/5 339/6/5
f 228/2/5 227/7/5 339/6/5
f 339/5/1 227/2/1 340/6/1
f 227/2/1 226/7/1 340/6/1
f 340/5/5 226/2/5 341/6/5
f 226/2/5 225/7/5 341/6/5
f 341/5/1 225/2/1 342/6/1
f 225/2/1 224/7/1 342/6/1
f 342/5/5 224/2/5 343/6/5
f 224/2/5 223/7/5 343/6/5
f 343/5/1 223/2/1 344/6/1
f 223/2/1 222/7/1 344/6/1
f 344/5/5 222/2/5 345/30/5
f 222/2/5 219/31/5 345/30/5
f 345/5/4 219/2/4 346/6/4
f 219/2/4 218/7/4 346/6/4
f 346/5/5 218/2/5 347/6/5
f 218/2/5 217/7/5 347/6/5
f 347/5/4 217/2/4 348/6/4
f 217/2/4 216/7/4 348/6/4
f 348/5/5 216/2/5 349/6/5
f 216/2/5 215/7/5 349/6/5
f 349/5/4 215/2/4 350/6/4
f 215/2/4 214/7/4 350/6/4
f 350/5/5 214/2/5 351/6/5
f 214/2/5 213/7/5 351/6/5
f 351/5/4 213/2/4 352/6/4
f 213/2/4 210/7/4 352/6/4
f 352/5/5 210/2/5 353/6/5
f 210/2/5 209/7/5 353/6/5
f 353/5/4 209/2/4 354/6/4
f 209/2/4 208/7/4 354/6/4
f 354/5/5 208/2/5 355/6/5
f 208/2/5 206/7/5 355/6/5
f 355/5/4 206/2/4 313/18/4
f 206/2/4 205/19/4 313/18/4
f 239/2/4 238/1/4 356/5/4
f 238/1/4 357/3/4 356/5/4
f 240/2/3 239/7/3 358/5/3
f 239/7/3 356/6/3 358/5/3
f 195/2/1 240/11/1 359/5/1
f 240/11/1 358/10/1 359/5/1
f 196/2/5 195/1/5 360/5/5
f 195/1/5 359/3/5 360/5/5
f 238/2/3 237/9/3 357/5/3
f 237/9/3 361/8/3 357/5/3
f 237/2/4 196/7/4 361/5/4
f 196/7/4 360/6/4 361/5/4
f 232/2/5 212/7/5 362/5/5
f 212/7/5 363/6/5 362/5/5
f 233/2/4 232/23/4 364/5/4
f 232/23/4 362/22/4 364/5/4
f 212/2/1 211/17/1 363/5/1
f 211/17/1 365/16/1 363/5/1
f 211/2/3 235/11/3 365/5/3
f 235/11/3 366/10/3 365/5/3
f 234/2/5 233/1/5 367/5/5
f 233/1/5 364/3/5 367/5/5
f 235/2/4 234/7/4 366/5/4
f 234/7/4 367/6/4 366/5/4
f 106/2/1 104/9/1 368/5/1
f 104/9/1 369/8/1 368/5/1
f 170/2/4 168/1/4 370/5/4
f 168/1/4 371/3/4 370/5/4
f 162/2/1 106/9/1 372/5/1
f 106/9/1 368/8/1 372/5/1
f 164/2/5 162/1/5 373/5/5
f 162/1/5 372/3/5 373/5/5
f 166/2/4 164/7/4 374/5/4
f 164/7/4 373/6/4 374/5/4
f 168/2/3 166/9/3 371/5/3
f 166/9/3 374/8/3 371/5/3
f 369/5/3 104/2/3 370/6/3
f 104/2/3 170/7/3 370/6/3

