# WaveFront *.obj file (generated by CINEMA 4D)

mtllib ./Cube-detach.mtl

v 22 1 -29
v -7.99999904632568 1 -29
v 22 8 -29
v -7.99999904632568 8 -29
v -7.99999809265137 1 19.5
v 22 1 19.5
v -7.99999809265137 7.75 19.5
v 22 7.75 19.5
v -7.99999809265137 1 -5
v -7.74999809265137 7.75 -5
v -7.99999809265137 1 -3
v -7.74999809265137 7.75 -3
v 22 8 -5
v 22 1 -5
v 22 1 -3
v 22 8 -3
v -7.99999904632568 1 -3
v -7.74999904632568 7.75 -3
v 24 1 -5
v 24 8 -5
v 24 8 -3
v 24 1 -3
v 24 8 -14
v 24 1 -14
v 34 8 -14
v 34 1 -14
v 24 1 6
v 24 8 6
v 34 8 -5
v 34 1 -5
v 34 1 6
v 34 8 6
v 34 1 -3
v 34 8 -3
v 36 1 -3
v 36 8 -3
v 36 8 -5
v 36 1 -5
v 36 1 6
v 36 8 6
v 46 1 6
v 46 8 6
v 46 1 -3
v 46 8 -3
v 46 8 -14
v 36 1 -14
v 36 8 -14
v 46 1 -14
v 46.001708984375 8 -4.99946403503418
v 46.00068283081055 1 -4.99978590011597
v 47.99596405029297 1 -3
v 47.99596405029297 8 -3
v 47.99596405029297 1 5.99247694015503
v 47.99596405029297 8 5.99247694015503
v 65.99326324462891 1 5.99247694015503
v 65.99326324462891 8 5.99247694015503
v 65.99326324462891 1 -13.99552249908447
v 65.99326324462891 8 -13.99552249908447
v 48.00799560546875 1 -13.99552249908447
v 48.00799560546875 8 -13.99552249908447
v 48.00799560546875 1 -4.99892807006836
v 48.00799560546875 8 -4.99892807006836
# 62 vertices

vn 0 0 1
vn 0 0 0
vn 0 0 -1
vn 0.99931484460831 -0.03701166063547 -0.00000003970921
vn 0.99981510639191 -0.01850925199687 -0.0052090534009
vn 0.99994575977325 0 -0.01041614171118
vn 1 0 0
vn 0.99981331825256 -0.01850814558566 0.0055524436757
vn 0.99925321340561 -0.03700938075781 0.01110281422734
vn -1 0 0
vn 0.99931484460831 -0.03701166063547 0.00000047651045
vn -1 0.0000732949411 0.00013287205365
vn -1 0 0.00018987583462
vn -1 0.00014658988221 0.00007586828724
vn -0.00034724758007 -0.0000229707839 0.99999994039536
vn -0.00042735243915 0 0.99999988079071
vn -0.00026714277919 -0.00004594157144 0.99999994039536
# 17 normals

vt 30 0 0
vt -0.00000095367432 0 0
vt 30 7 0
vt 0 1 0
vt -0.00000095367432 7 0
vt 0 0 0
vt 30 6.75 0
vt 0 6.75 0
vt 24.5 0.00000023841858 0
vt 24.5 6.75347137451172 0
vt 48.5 0.00000023841858 0
vt 48.5 6.99880123138428 0
vt 0 0.00000023841858 0
vt 0 6.74884414672852 0
vt 22.5 0.00000023841858 0
vt 22.5 6.75347137451172 0
vt 24 7 0
vt 0 7 0
vt 24 0 0
vt 22.5 6.75 0
vt 22.5 0 0
vt 2 6.75462818145752 0
vt 2 0 0
vt 0 6.75462818145752 0
vt 2 7 0
vt 9 7 0
vt 9 0 0
vt 10 7 0
vt 10 0 0
vt 9.00053596496582 7 0
vt 9.00021457672119 0 0
vt 1.99596405029297 7 0
vt 1.99596405029297 0 0
vt 0.00000047683716 0 0
vt 8.99247741699219 7 0
vt 8.99247741699219 0 0
vt 0.00000047683716 7 0
vt 17.99729919433594 7 0
vt 17.99729919433594 0 0
vt 19.98799896240234 7 0
vt 19.98799896240234 0 0
vt 17.98526763916016 7 0
vt 17.98526763916016 0 0
vt 8.99659538269043 7 0
vt 8.99659538269043 0 0
vt 2.0073127746582 7 0
vt 2.0073127746582 0 0
vt 0.00102615356445 7 0
# 48 texture coordinates

o Cube
usemtl MATERIAL_CASTLE_WALL_1
f 3/3/1 2/2/1 1/1/1
f 3/3/1 4/5/1 2/2/1
f 7/7/3 6/6/3 5/1/3
f 7/7/3 8/8/3 6/6/3
f 2/11/5 10/10/5 9/9/4
f 10/10/5 2/11/5 4/12/6
f 11/15/8 7/14/8 5/13/7
f 7/14/8 11/15/8 12/16/9
f 3/18/10 1/6/10 13/17/10
f 1/6/10 14/19/10 13/17/10
f 6/21/10 8/20/10 15/6/10
f 8/20/10 16/18/10 15/6/10
f 9/23/11 10/22/11 17/6/11
f 10/22/11 18/24/11 17/6/11

usemtl MATERIAL_WALL_BRICK_BLUE_TEXTURE_1
f 14/6/1 19/23/1 13/18/1
f 19/23/1 20/25/1 13/18/1
f 22/6/3 15/23/3 21/18/3
f 15/23/3 16/25/3 21/18/3
f 20/18/7 19/6/7 23/26/7
f 19/6/7 24/27/7 23/26/7
f 23/18/1 24/6/1 25/28/1
f 24/6/1 26/29/1 25/28/1
f 22/27/7 21/26/7 27/6/7
f 21/26/7 28/18/7 27/6/7
f 25/18/10 26/6/10 29/26/10
f 26/6/10 30/27/10 29/26/10
f 27/29/3 28/28/3 31/6/3
f 28/28/3 32/18/3 31/6/3
f 31/27/10 32/26/10 33/6/10
f 32/26/10 34/18/10 33/6/10
f 33/23/3 34/25/3 35/6/3
f 34/25/3 36/18/3 35/6/3
f 29/18/1 30/6/1 37/25/1
f 30/6/1 38/23/1 37/25/1

usemtl texture_antarctic_wall_3
f 35/27/7 36/26/7 39/6/7
f 36/26/7 40/18/7 39/6/7
f 39/29/3 40/28/3 41/6/3
f 40/28/3 42/18/3 41/6/3
f 41/27/10 42/26/10 43/6/10
f 42/26/10 44/18/10 43/6/10
f 47/18/1 46/6/1 45/28/1
f 46/6/1 48/29/1 45/28/1
f 45/18/13 48/6/12 49/30/12
f 48/6/12 50/31/14 49/30/12

usemtl texture_egypt_wall0038
f 43/33/3 44/32/3 51/6/3
f 44/32/3 52/18/3 51/6/3
f 51/36/7 52/35/7 53/34/7
f 52/35/7 54/37/7 53/34/7
f 53/39/3 54/38/3 55/6/3
f 54/38/3 56/18/3 55/6/3
f 55/41/10 56/40/10 57/6/10
f 56/40/10 58/18/10 57/6/10
f 57/43/1 58/42/1 59/6/1
f 58/42/1 60/18/1 59/6/1
f 59/45/7 60/44/7 61/34/7
f 60/44/7 62/37/7 61/34/7
f 61/47/16 62/46/15 50/6/15
f 62/46/15 49/48/17 50/6/15

v 48 1 -5
v 48 1 -3
v 66 1 -5
v 66 1 -3
v 48 1 -14
v 66 1 -14
v 66 1 6
v 48 1 6
# 8 vertices

vn 0 1 0
# 1 normal

vt 0 24 0
vt 30 24 0
vt 0 26 0
vt 30 26 0
vt 0 48.5 0
vt 30 48.5 0
vt 2 2 0
vt 0 2 0
vt 10 2 0
vt 0 9 0
vt 10 9 0
vt 0.00000381469727 0.00021409988403 0
vt 10.00068664550781 2 0
vt 10.00068664550781 0 0
vt 0.00068664550781 2 0
vt 0.00000381469727 9.00021362304688 0
vt 10.00068664550781 9 0
vt 0.00068664550781 0 0
vt 1.99931716918945 0.00021409988403 0
vt 18 2 0
vt 18 0 0
vt 18 9 0
# 22 texture coordinates

o Cube-detach
usemtl MATERIAL_CASTLE_FLOOR_1
f 2/1/18 14/49/18 1/6/18
f 14/49/18 2/1/18 9/50/18
f 9/50/18 15/51/18 14/49/18
f 15/51/18 9/50/18 11/52/18
f 11/52/18 6/53/18 15/51/18
f 6/53/18 11/52/18 5/54/18

usemtl MATERIAL_DUNGEON_FLOOR_1
f 14/23/18 15/55/18 19/6/18
f 15/55/18 22/56/18 19/6/18
f 19/29/18 22/57/18 30/6/18
f 22/57/18 33/56/18 30/6/18
f 19/59/18 30/58/18 24/29/18
f 30/58/18 26/6/18 24/29/18
f 33/6/18 22/29/18 31/58/18
f 22/29/18 27/59/18 31/58/18
f 30/23/18 33/55/18 38/6/18
f 33/55/18 35/56/18 38/6/18

usemtl texture_antarctic_floor_6
f 38/62/18 35/61/18 50/60/18
f 35/61/18 43/63/18 50/60/18
f 43/6/18 35/29/18 41/58/18
f 35/29/18 39/59/18 41/58/18
f 38/65/18 50/64/18 46/62/18
f 50/64/18 48/66/18 46/62/18

usemtl texture_antarctic_wall_3_1
f 37/18/7 38/6/7 47/26/7
f 38/6/7 46/27/7 47/26/7

usemtl texture_egypt_floor0003
f 50/67/18 43/55/18 63/6/18
f 43/55/18 64/56/18 63/6/18
f 63/69/18 64/68/18 65/6/18
f 64/68/18 66/56/18 65/6/18
f 63/70/18 65/58/18 67/69/18
f 65/58/18 68/6/18 67/69/18
f 66/6/18 64/69/18 69/58/18
f 64/69/18 70/70/18 69/58/18

