# WaveFront *.obj file (generated by CINEMA 4D)

mtllib ./Cube-detach_(1).mtl

v 22 -3 -29
v 22 -3 -5
v -8.00000095367432 -3 -29
v -8 -3 -5
v 22 -3 -3
v -8 -3 -3
v 22 -3 19.5
v -8 -3 19.5
v 24 -3 -5
v 24 -3 -3
v 34 -3 -5
v 34 -3 -3
v 24 -3 -14
v 34 -3 -14
v 34 -3 6
v 24 -3 6
v 36 -3 -5
v 36 -3 -3
v 46.00068283081055 -3 -4.99978590011597
v 46 -3 -3
v 46 -3 6
v 36 -3 6
v 36 -3 -14
v 46 -3 -14
v 48 -3 -5
v 48 -3 -3
v 66 -3 -5
v 66 -3 -3
v 48 -3 -14
v 66 -3 -14
v 66 -3 6
v 48 -3 6
# 32 vertices

vn 0 1 0
vn 0 0 0
# 2 normals

vt 0 0 0
vt 0 24 0
vt 30 0 0
vt 0 1 0
vt 30 24 0
vt 0 26 0
vt 30 26 0
vt 0 48.5 0
vt 30 48.5 0
vt 2 2 0
vt 2 0 0
vt 0 2 0
vt 10 2 0
vt 10 0 0
vt 0 9 0
vt 10 9 0
vt 0.00000381469727 0.00021409988403 0
vt 10.00068664550781 2 0
vt 10.00068664550781 0 0
vt 0.00068664550781 2 0
vt 0.00000381469727 9.00021362304688 0
vt 10.00068664550781 9 0
vt 0.00068664550781 0 0
vt 1.99931716918945 0.00021409988403 0
vt 18 2 0
vt 18 0 0
vt 18 9 0
# 27 texture coordinates

o Cube-detach_(1)
usemtl MINIMAP_FLOOR
f 3/3/1 2/2/1 1/1/1
f 2/2/1 3/3/1 4/5/1
f 4/5/1 5/6/1 2/2/1
f 5/6/1 4/5/1 6/7/1
f 6/7/1 7/8/1 5/6/1
f 7/8/1 6/7/1 8/9/1
f 2/11/1 5/10/1 9/1/1
f 5/10/1 10/12/1 9/1/1
f 9/14/1 10/13/1 11/1/1
f 10/13/1 12/12/1 11/1/1
f 9/16/1 11/15/1 13/14/1
f 11/15/1 14/1/1 13/14/1
f 12/1/1 10/14/1 15/15/1
f 10/14/1 16/16/1 15/15/1
f 11/11/1 12/10/1 17/1/1
f 12/10/1 18/12/1 17/1/1
f 17/19/1 18/18/1 19/17/1
f 18/18/1 20/20/1 19/17/1
f 20/1/1 18/14/1 21/15/1
f 18/14/1 22/16/1 21/15/1
f 17/22/1 19/21/1 23/19/1
f 19/21/1 24/23/1 23/19/1
f 19/24/1 20/10/1 25/1/1
f 20/10/1 26/12/1 25/1/1
f 25/26/1 26/25/1 27/1/1
f 26/25/1 28/12/1 27/1/1
f 25/27/1 27/15/1 29/26/1
f 27/15/1 30/1/1 29/26/1
f 28/1/1 26/26/1 31/15/1
f 26/26/1 32/27/1 31/15/1

