# WaveFront *.obj file (generated by CINEMA 4D)

mtllib ./Bars.mtl

v -1 3 4
v -1 1 5
v -1 3 5
v -1 1 4
v 0 3 0
v -1 1 0
v -1 3 0
v 0 1 0
v 6 1 5
v 7 1 5
v 6 3 5
v 7 3 5
v 4 3 5
v 4 1 5
v 7 1 0
v 6 1 0
v 7 3 0
v 6 3 0
v 4 1 0
v 4 3 0
v -2 1 -5
v -2 1 -2
v -2 3 -5
v -2 3 -2
v 0 1 -2
v 0 3 -2
v 9 3 -2
v 4 1 -2
v 9 1 -2
v 4 3 -2
v 9 1 -4
v 9 3 -4
v 9 1 -6
v 9 3 -6
v 0 1 5
v 0 3 5
v -4 1 1
v -2 3 1
v -2 1 1
v -4 3 1
v -2 1 3
v -14 3 3
v -14 1 3
v -2 3 3
v -14 3 1
v -14 1 1
v -14 3 -9
v -14 1 -9
v -14 3 -12
v -14 1 -12
v -10 3 -12
v -10 1 -12
v -2 1 -9
v -2 3 -12
v -2 1 -12
v -2 3 -9
v 0 3 -12
v 0 1 -12
v 9 3 -10
v 9 1 -12
v 9 3 -12
v 9 1 -10
v -7 3 -12
v -7 1 -12
v -7 3 -13
v -7 1 -13
v -7 3 -18
v -7 1 -18
v 3 3 -18
v 3 1 -18
v 3 3 -13
v 3 1 -13
v 1 3 -16
v 1 1 -13
v 1 3 -13
v 1 1 -16
v -4 3 -16
v -4 1 -16
v -4 3 -9
v -4 1 -9
v 8 1 -12
v 8 3 -12
v 5 3 -20
v 5 1 -13
v 5 3 -13
v 5 1 -20
v -7 3 -20
v -7 1 -20
v -7 3 -24
v -7 1 -24
v -7 3 -31
v -7 1 -28
v -7 3 -28
v -7 1 -31
v -1 3 -31
v -1 1 -31
v 7 3 -31
v 3 1 -31
v 3 3 -31
v 7 1 -31
v 7 3 -13
v 7 1 -13
v 18 3 -9
v 10 1 -9
v 10 3 -9
v 18 1 -9
v 18 3 -12
v 18 1 -12
v 11 1 -7
v 10 3 -7
v 10 1 -7
v 11 3 -7
v 11 1 -5
v 11 3 -5
v 20 1 -5
v 20 3 -5
v 20 1 -12
v 20 3 -12
v 25 1 -13
v 21 3 -13
v 21 1 -13
v 25 3 -13
v 25 1 -25
v 25 3 -25
v 21 1 -25
v 21 3 -25
v 14 3 -13
v 17 1 -13
v 17 3 -13
v 14 1 -13
v 14 3 -25
v 14 1 -25
v 17 3 -25
v 17 1 -25
# 134 vertices

vn 1 0 0
vn 0 0 0
vn 0 0 1
vn 0 0 -1
vn -1 0 0
# 5 normals

vt 1 2 0
vt 0 0 0
vt 0 2 0
vt 0 1 0
vt 1 0 0
vt 2 2 0
vt 2 0 0
vt 3 0 0
vt 3 2 0
vt 5 0 0
vt 5 2 0
vt 12 2 0
vt 12 0 0
vt 10 2 0
vt 10 0 0
vt 4 2 0
vt 4 0 0
vt 7 2 0
vt 7 0 0
vt 6 2 0
vt 6 0 0
vt 18 2 0
vt 18 0 0
vt 8 2 0
vt 8 0 0
vt 9 2 0
vt 9 0 0
# 27 texture coordinates

o bars
usemtl TEXTURE_GRAVEYARD_fence
f 3/3/1 2/2/1 1/1/1
f 2/2/1 4/5/1 1/1/1
f 7/3/3 6/2/3 5/1/3
f 6/2/3 8/5/3 5/1/3
f 11/1/4 10/2/4 9/5/4
f 11/1/4 12/3/4 10/2/4
f 11/3/4 9/2/4 13/6/4
f 9/2/4 14/7/4 13/6/4
f 17/1/3 16/2/3 15/5/3
f 17/1/3 18/3/3 16/2/3
f 16/7/3 18/6/3 19/2/3
f 18/6/3 20/3/3 19/2/3
f 23/9/1 22/2/1 21/8/1
f 23/9/1 24/3/1 22/2/1
f 26/3/4 25/2/4 24/6/4
f 25/2/4 22/7/4 24/6/4
f 29/2/4 28/10/4 27/3/4
f 28/10/4 30/11/4 27/3/4
f 29/7/5 27/6/5 31/2/5
f 27/6/5 32/3/5 31/2/5
f 31/7/5 32/6/5 33/2/5
f 32/6/5 34/3/5 33/2/5
f 2/5/4 3/1/4 35/2/4
f 3/1/4 36/3/4 35/2/4
f 39/7/3 38/6/3 37/2/3
f 38/6/3 40/3/3 37/2/3
f 43/13/4 42/12/4 41/2/4
f 42/12/4 44/3/4 41/2/4
f 42/3/1 43/2/1 45/6/1
f 43/2/1 46/7/1 45/6/1
f 45/3/1 46/2/1 47/14/1
f 46/2/1 48/15/1 47/14/1
f 47/3/1 48/2/1 49/9/1
f 48/2/1 50/8/1 49/9/1
f 49/3/3 50/2/3 51/16/3
f 50/2/3 52/17/3 51/16/3
f 55/8/1 54/9/1 53/2/1
f 54/9/1 56/3/1 53/2/1
f 54/3/3 55/2/3 57/6/3
f 55/2/3 58/7/3 57/6/3
f 61/3/5 60/2/5 59/6/5
f 60/2/5 62/7/5 59/6/5
f 51/3/3 52/2/3 63/9/3
f 52/2/3 64/8/3 63/9/3
f 63/3/1 64/2/1 65/1/1
f 64/2/1 66/5/1 65/1/1
f 65/3/1 66/2/1 67/11/1
f 66/2/1 68/10/1 67/11/1
f 67/3/3 68/2/3 69/14/3
f 68/2/3 70/15/3 69/14/3
f 69/3/5 70/2/5 71/11/5
f 70/2/5 72/10/5 71/11/5
f 75/3/1 74/2/1 73/9/1
f 74/2/1 76/8/1 73/9/1
f 73/3/4 76/2/4 77/11/4
f 76/2/4 78/10/4 77/11/4
f 77/3/5 78/2/5 79/18/5
f 78/2/5 80/19/5 79/18/5
f 60/5/3 61/1/3 81/2/3
f 61/1/3 82/3/3 81/2/3
f 85/3/1 84/2/1 83/18/1
f 84/2/1 86/19/1 83/18/1
f 83/3/4 86/2/4 87/12/4
f 86/2/4 88/13/4 87/12/4
f 87/3/1 88/2/1 89/16/1
f 88/2/1 90/17/1 89/16/1
f 93/3/1 92/2/1 91/9/1
f 92/2/1 94/8/1 91/9/1
f 91/3/3 94/2/3 95/20/3
f 94/2/3 96/21/3 95/20/3
f 99/3/3 98/2/3 97/16/3
f 98/2/3 100/17/3 97/16/3
f 97/3/5 100/2/5 101/22/5
f 100/2/5 102/23/5 101/22/5
f 105/3/3 104/2/3 103/24/3
f 104/2/3 106/25/3 103/24/3
f 103/3/1 106/2/1 107/9/1
f 106/2/1 108/8/1 107/9/1
f 111/5/4 110/1/4 109/2/4
f 110/1/4 112/3/4 109/2/4
f 109/7/1 112/6/1 113/2/1
f 112/6/1 114/3/1 113/2/1
f 113/27/4 114/26/4 115/2/4
f 114/26/4 116/3/4 115/2/4
f 115/19/5 116/18/5 117/2/5
f 116/18/5 118/3/5 117/2/5
f 121/17/4 120/16/4 119/2/4
f 120/16/4 122/3/4 119/2/4
f 119/13/5 122/12/5 123/2/5
f 122/12/5 124/3/5 123/2/5
f 123/17/3 124/16/3 125/2/3
f 124/16/3 126/3/3 125/2/3
f 129/3/4 128/2/4 127/9/4
f 128/2/4 130/8/4 127/9/4
f 127/3/1 130/2/1 131/12/1
f 130/2/1 132/13/1 131/12/1
f 131/3/3 132/2/3 133/9/3
f 132/2/3 134/8/3 133/9/3

